<svg width="667" height="667" viewBox="0 0 667 667" fill="none" xmlns="http://www.w3.org/2000/svg">
<path d="M74.6666 228.623C70.5406 133.395 123.675 114.631 149.247 109.332C202.151 98.3708 232.623 135.823 283.517 128.605C339.216 120.708 347.528 95.0827 366.921 74.1227C389.8 49.3934 427.989 40.9907 462.583 42.0947C528.751 44.2067 554.561 94.8107 558.689 128.695C562.816 162.579 558.025 191.403 554.573 225.336C547.617 293.74 636.889 376.429 565.777 452.925C504.008 519.373 433.439 463.979 393.195 452.964C371.132 446.923 303.751 411.544 257.584 446.22C238.083 460.867 143.92 548.962 94.6666 480.515C64.8884 439.133 98.2816 377.948 98.2218 356.096C98.0494 292.951 76.5963 273.159 74.6666 228.623Z" fill="#CBEDE6"/>
<mask id="mask0_486_21310" style="mask-type:luminance" maskUnits="userSpaceOnUse" x="74" y="41" width="520" height="466">
<path d="M74.6666 228.623C70.5406 133.395 123.675 114.631 149.247 109.332C202.151 98.3708 232.623 135.823 283.517 128.605C339.216 120.708 347.528 95.0827 366.921 74.1227C389.8 49.3934 427.989 40.9907 462.583 42.0947C528.751 44.2067 554.561 94.8107 558.689 128.695C562.816 162.579 558.025 191.403 554.573 225.336C547.617 293.74 636.889 376.429 565.777 452.925C504.008 519.373 433.439 463.979 393.195 452.964C371.132 446.923 303.751 411.544 257.584 446.22C238.083 460.867 143.92 548.962 94.6666 480.515C64.8884 439.133 98.2816 377.948 98.2218 356.096C98.0494 292.951 76.5963 273.159 74.6666 228.623Z" fill="white"/>
</mask>
<g mask="url(#mask0_486_21310)">
<path d="M61.3643 260.204H603.364V249.357H61.3643V260.204ZM605.364 262.204H59.3643V247.357H605.364V262.204Z" fill="#5892AC"/>
<path d="M150.2 247.357H167.755V214.084H150.2V247.357ZM169.755 249.357H148.2V212.084H169.755V249.357Z" fill="#5892AC"/>
<path d="M150.2 236.865H167.755V224.576H150.2V236.865ZM169.755 238.865H148.2V222.576H169.755V238.865Z" fill="#5892AC"/>
<path d="M123.533 247.357H141.088V214.084H123.533V247.357ZM143.088 249.357H121.533V212.084H143.088V249.357Z" fill="#5892AC"/>
<path d="M123.533 236.865H141.088V224.576H123.533V236.865ZM143.088 238.865H121.533V222.576H143.088V238.865Z" fill="#5892AC"/>
<path d="M280.867 247.357H298.422V227.417H280.867V247.357ZM300.422 249.357H278.867V225.417H300.422V249.357Z" fill="#5892AC"/>
<path d="M280.867 232.195H298.422V227.417H280.867V232.195ZM300.422 234.195H278.867V225.417H300.422V234.195Z" fill="#5892AC"/>
<path d="M96.8672 247.357H114.422V227.417H96.8672V247.357ZM116.422 249.357H94.8672V225.417H116.422V249.357Z" fill="#5892AC"/>
<path d="M96.8672 232.195H114.422V227.417H96.8672V232.195ZM116.422 234.195H94.8672V225.417H116.422V234.195Z" fill="#5892AC"/>
<path d="M242.195 247.36H259.755V223.747C259.755 220.931 257.465 218.639 254.649 218.639H253.649V208.972H248.315V218.639H247.315C244.487 218.639 242.195 220.931 242.195 223.747V247.36ZM261.755 249.36H240.195V223.747C240.195 220.163 242.862 217.189 246.315 216.708V206.972H255.649V216.709C259.095 217.197 261.755 220.167 261.755 223.747V249.36Z" fill="#5892AC"/>
<path d="M250.755 227.417C248.768 227.417 247.088 230.063 247.088 233.195C247.088 236.327 248.768 238.972 250.755 238.972C252.743 238.972 254.421 236.327 254.421 233.195C254.421 230.063 252.743 227.417 250.755 227.417ZM250.755 240.972C247.577 240.972 245.088 237.556 245.088 233.195C245.088 228.833 247.577 225.417 250.755 225.417C253.933 225.417 256.421 228.833 256.421 233.195C256.421 237.556 253.933 240.972 250.755 240.972Z" fill="#5892AC"/>
<path d="M254.648 214.084H247.314V212.084H254.648V214.084Z" fill="#5892AC"/>
<path d="M519.528 247.36H537.088V223.747C537.088 220.931 534.799 218.639 531.982 218.639H530.982V208.972H525.648V218.639H524.648C521.819 218.639 519.528 220.931 519.528 223.747V247.36ZM539.088 249.36H517.528V223.747C517.528 220.163 520.195 217.189 523.648 216.708V206.972H532.982V216.709C536.428 217.197 539.088 220.167 539.088 223.747V249.36Z" fill="#5892AC"/>
<path d="M528.089 227.417C526.102 227.417 524.422 230.063 524.422 233.195C524.422 236.327 526.102 238.972 528.089 238.972C530.077 238.972 531.755 236.327 531.755 233.195C531.755 230.063 530.077 227.417 528.089 227.417ZM528.089 240.972C524.913 240.972 522.422 237.556 522.422 233.195C522.422 228.833 524.913 225.417 528.089 225.417C531.266 225.417 533.755 228.833 533.755 233.195C533.755 237.556 531.266 240.972 528.089 240.972Z" fill="#5892AC"/>
<path d="M531.982 214.084H524.648V212.084H531.982V214.084Z" fill="#5892AC"/>
<path d="M546.195 247.36H563.755V223.747C563.755 220.931 561.466 218.639 558.649 218.639H557.649V208.972H552.315V218.639H551.315C548.486 218.639 546.195 220.931 546.195 223.747V247.36ZM565.755 249.36H544.195V223.747C544.195 220.163 546.862 217.189 550.315 216.708V206.972H559.649V216.709C563.095 217.197 565.755 220.167 565.755 223.747V249.36Z" fill="#5892AC"/>
<path d="M554.755 227.417C552.768 227.417 551.088 230.063 551.088 233.195C551.088 236.327 552.768 238.972 554.755 238.972C556.743 238.972 558.421 236.327 558.421 233.195C558.421 230.063 556.743 227.417 554.755 227.417ZM554.755 240.972C551.579 240.972 549.088 237.556 549.088 233.195C549.088 228.833 551.579 225.417 554.755 225.417C557.932 225.417 560.421 228.833 560.421 233.195C560.421 237.556 557.932 240.972 554.755 240.972Z" fill="#5892AC"/>
<path d="M558.648 214.084H551.314V212.084H558.648V214.084Z" fill="#5892AC"/>
<path d="M306.755 247.357H348.422V221.972H306.755V247.357ZM350.422 249.357H304.755V219.972H350.422V249.357Z" fill="#5892AC"/>
<path d="M327.588 229.167H312.755V227.167H327.588V229.167Z" fill="#5892AC"/>
<path d="M327.588 235.665H312.755V233.665H327.588V235.665Z" fill="#5892AC"/>
<path d="M327.588 242.164H312.755V240.164H327.588V242.164Z" fill="#5892AC"/>
<path d="M335.422 238.972H340.755V229.167H335.422V238.972ZM342.755 240.972H333.422V227.167H342.755V240.972Z" fill="#5892AC"/>
<path d="M370.311 227.417C368.325 227.417 366.645 230.063 366.645 233.195C366.645 236.327 368.325 238.972 370.311 238.972C372.299 238.972 373.978 236.327 373.978 233.195C373.978 230.063 372.299 227.417 370.311 227.417ZM370.311 240.972C367.135 240.972 364.645 237.556 364.645 233.195C364.645 228.833 367.135 225.417 370.311 225.417C373.489 225.417 375.978 228.833 375.978 233.195C375.978 237.556 373.489 240.972 370.311 240.972Z" fill="#5892AC"/>
<path d="M359.088 247.357H381.532V219.639H359.088V247.357ZM383.532 249.357H357.088V217.639H383.532V249.357Z" fill="#5892AC"/>
<path d="M400.977 227.417C398.991 227.417 397.311 230.063 397.311 233.195C397.311 236.327 398.991 238.972 400.977 238.972C402.965 238.972 404.644 236.327 404.644 233.195C404.644 230.063 402.965 227.417 400.977 227.417ZM400.977 240.972C397.801 240.972 395.311 237.556 395.311 233.195C395.311 228.833 397.801 225.417 400.977 225.417C404.155 225.417 406.644 228.833 406.644 233.195C406.644 237.556 404.155 240.972 400.977 240.972Z" fill="#5892AC"/>
<path d="M389.755 247.357H412.199V219.639H389.755V247.357ZM414.199 249.357H387.755V217.639H414.199V249.357Z" fill="#5892AC"/>
<path d="M420.743 247.36H442.623V225.519C442.623 222.277 439.984 219.639 436.743 219.639H435.743V214.079H427.623V219.639H426.623C423.38 219.639 420.743 222.277 420.743 225.519V247.36ZM444.623 249.36H418.743V225.519C418.743 221.513 421.748 218.195 425.623 217.703V212.079H437.743V217.703C441.618 218.195 444.623 221.513 444.623 225.519V249.36Z" fill="#5892AC"/>
<path d="M424.682 212.084H438.682V208.972H424.682V212.084ZM440.682 214.084H422.682V206.972H440.682V214.084Z" fill="#5892AC"/>
<path d="M426.35 237.581H437.016V229.415H426.35V237.581ZM439.016 239.581H424.35V227.415H439.016V239.581Z" fill="#5892AC"/>
<path d="M451.409 247.36H473.289V225.519C473.289 222.277 470.651 219.639 467.409 219.639H466.409V214.079H458.289V219.639H457.289C454.046 219.639 451.409 222.277 451.409 225.519V247.36ZM475.289 249.36H449.409V225.519C449.409 221.513 452.414 218.195 456.289 217.703V212.079H468.409V217.703C472.284 218.195 475.289 221.513 475.289 225.519V249.36Z" fill="#5892AC"/>
<path d="M455.349 212.084H469.349V208.972H455.349V212.084ZM471.349 214.084H453.349V206.972H471.349V214.084Z" fill="#5892AC"/>
<path d="M457.017 237.581H467.683V229.415H457.017V237.581ZM469.683 239.581H455.017V227.415H469.683V239.581Z" fill="#5892AC"/>
<path d="M488.743 247.36H510.623V225.519C510.623 222.277 507.984 219.639 504.743 219.639H503.743V214.079H495.623V219.639H494.623C491.38 219.639 488.743 222.277 488.743 225.519V247.36ZM512.623 249.36H486.743V225.519C486.743 221.513 489.748 218.195 493.623 217.703V212.079H505.743V217.703C509.618 218.195 512.623 221.513 512.623 225.519V249.36Z" fill="#5892AC"/>
<path d="M492.682 212.084H506.682V208.972H492.682V212.084ZM508.682 214.084H490.682V206.972H508.682V214.084Z" fill="#5892AC"/>
<path d="M488.743 237.581H510.623V229.415H488.743V237.581ZM512.623 239.581H486.743V227.415H512.623V239.581Z" fill="#5892AC"/>
<path d="M211.533 247.357H229.088V214.084H211.533V247.357ZM231.088 249.357H209.533V212.084H231.088V249.357Z" fill="#5892AC"/>
<path d="M229.721 234.999C222.309 232.056 211.019 227.601 210.293 227.384L210.569 226.461L209.973 225.588C210.513 225.22 210.509 225.221 230.458 233.139L229.721 234.999Z" fill="#5892AC"/>
<path d="M229.721 228.332C222.309 225.389 211.019 220.935 210.293 220.717L210.569 219.795L209.973 218.921C210.513 218.555 210.509 218.555 230.458 226.472L229.721 228.332Z" fill="#5892AC"/>
<path d="M180.867 247.357H198.422V214.084H180.867V247.357ZM200.422 249.357H178.867V212.084H200.422V249.357Z" fill="#5892AC"/>
<path d="M198.254 234.217C184.036 234.217 179.171 224.436 178.966 224.008L180.768 223.143L179.867 223.576L180.767 223.14C180.958 223.532 185.598 232.727 199.384 232.195L199.46 234.195C199.051 234.209 198.648 234.217 198.254 234.217Z" fill="#5892AC"/>
<path d="M61.3643 180.204H603.364V169.357H61.3643V180.204ZM605.364 182.204H59.3643V167.357H605.364V182.204Z" fill="#5892AC"/>
<path d="M487.639 167.357H505.195V134.084H487.639V167.357ZM507.195 169.357H485.639V132.083H507.195V169.357Z" fill="#5892AC"/>
<path d="M487.639 156.865H505.195V144.576H487.639V156.865ZM507.195 158.865H485.639V142.576H507.195V158.865Z" fill="#5892AC"/>
<path d="M514.306 167.357H531.862V134.084H514.306V167.357ZM533.862 169.357H512.306V132.083H533.862V169.357Z" fill="#5892AC"/>
<path d="M514.306 156.865H531.862V144.576H514.306V156.865ZM533.862 158.865H512.306V142.576H533.862V158.865Z" fill="#5892AC"/>
<path d="M368.973 167.357H386.529V147.417H368.973V167.357ZM388.529 169.357H366.973V145.417H388.529V169.357Z" fill="#5892AC"/>
<path d="M368.973 152.195H386.529V147.417H368.973V152.195ZM388.529 154.195H366.973V145.417H388.529V154.195Z" fill="#5892AC"/>
<path d="M540.973 167.357H558.529V147.417H540.973V167.357ZM560.529 169.357H538.973V145.417H560.529V169.357Z" fill="#5892AC"/>
<path d="M540.973 152.195H558.529V147.417H540.973V152.195ZM560.529 154.195H538.973V145.417H560.529V154.195Z" fill="#5892AC"/>
<path d="M395.639 167.36H413.199V143.747C413.199 140.931 410.909 138.639 408.092 138.639H407.092L407.08 137.639V128.972H401.747V138.639H400.747C397.929 138.639 395.639 140.931 395.639 143.747V167.36ZM415.199 169.36H393.639V143.747C393.639 140.167 396.3 137.197 399.747 136.709V126.972H409.08V136.709C412.537 137.195 415.199 140.165 415.199 143.747V169.36Z" fill="#5892AC"/>
<path d="M404.639 147.417C402.653 147.417 400.973 150.063 400.973 153.195C400.973 156.327 402.653 158.972 404.639 158.972C406.627 158.972 408.306 156.327 408.306 153.195C408.306 150.063 406.627 147.417 404.639 147.417ZM404.639 160.972C401.463 160.972 398.973 157.556 398.973 153.195C398.973 148.833 401.463 145.417 404.639 145.417C407.817 145.417 410.306 148.833 410.306 153.195C410.306 157.556 407.817 160.972 404.639 160.972Z" fill="#5892AC"/>
<path d="M408.08 134.084H400.747V132.083H408.08V134.084Z" fill="#5892AC"/>
<path d="M142.306 167.36H159.866V143.747C159.866 140.931 157.576 138.639 154.76 138.639H153.76L153.747 137.639V128.972H148.414V138.639H147.414C144.598 138.639 142.306 140.931 142.306 143.747V167.36ZM161.866 169.36H140.306V143.747C140.306 140.167 142.967 137.197 146.414 136.709V126.972H155.747V136.709C159.204 137.195 161.866 140.165 161.866 143.747V169.36Z" fill="#5892AC"/>
<path d="M151.305 147.417C149.319 147.417 147.639 150.063 147.639 153.195C147.639 156.327 149.319 158.972 151.305 158.972C153.293 158.972 154.972 156.327 154.972 153.195C154.972 150.063 153.293 147.417 151.305 147.417ZM151.305 160.972C148.128 160.972 145.639 157.556 145.639 153.195C145.639 148.833 148.128 145.417 151.305 145.417C154.484 145.417 156.972 148.833 156.972 153.195C156.972 157.556 154.484 160.972 151.305 160.972Z" fill="#5892AC"/>
<path d="M154.747 134.084H147.414V132.083H154.747V134.084Z" fill="#5892AC"/>
<path d="M115.64 167.36H133.199V143.747C133.199 140.931 130.909 138.639 128.093 138.639H127.093L127.08 137.639V128.972H121.746V138.639H120.746C117.93 138.639 115.64 140.931 115.64 143.747V167.36ZM135.199 169.36H113.64V143.747C113.64 140.167 116.3 137.197 119.746 136.709V126.972H129.08V136.709C132.538 137.195 135.199 140.165 135.199 143.747V169.36Z" fill="#5892AC"/>
<path d="M124.64 147.417C122.652 147.417 120.974 150.063 120.974 153.195C120.974 156.327 122.652 158.972 124.64 158.972C126.628 158.972 128.307 156.327 128.307 153.195C128.307 150.063 126.628 147.417 124.64 147.417ZM124.64 160.972C121.462 160.972 118.974 157.556 118.974 153.195C118.974 148.833 121.462 145.417 124.64 145.417C127.818 145.417 130.307 148.833 130.307 153.195C130.307 157.556 127.818 160.972 124.64 160.972Z" fill="#5892AC"/>
<path d="M128.08 134.084H120.747V132.083H128.08V134.084Z" fill="#5892AC"/>
<path d="M318.973 167.357H360.639V141.972H318.973V167.357ZM362.639 169.357H316.973V139.972H362.639V169.357Z" fill="#5892AC"/>
<path d="M354.639 149.167H339.806V147.167H354.639V149.167Z" fill="#5892AC"/>
<path d="M354.639 155.665H339.806V153.665H354.639V155.665Z" fill="#5892AC"/>
<path d="M354.639 162.164H339.806V160.164H354.639V162.164Z" fill="#5892AC"/>
<path d="M326.639 158.972H331.972V149.167H326.639V158.972ZM333.972 160.972H324.639V147.167H333.972V160.972Z" fill="#5892AC"/>
<path d="M265.639 167.357H307.305V141.972H265.639V167.357ZM309.305 169.357H263.639V139.972H309.305V169.357Z" fill="#5892AC"/>
<path d="M301.306 149.167H286.473V147.167H301.306V149.167Z" fill="#5892AC"/>
<path d="M301.306 155.665H286.473V153.665H301.306V155.665Z" fill="#5892AC"/>
<path d="M301.306 162.164H286.473V160.164H301.306V162.164Z" fill="#5892AC"/>
<path d="M273.306 158.972H278.639V149.167H273.306V158.972ZM280.639 160.972H271.306V147.167H280.639V160.972Z" fill="#5892AC"/>
<path d="M206.106 167.36H227.986V145.519C227.986 142.277 225.348 139.639 222.106 139.639H221.106V134.079H212.986V139.639H211.986C208.744 139.639 206.106 142.277 206.106 145.519V167.36ZM229.986 169.36H204.106V145.519C204.106 141.513 207.11 138.195 210.986 137.703V132.079H223.106V137.703C226.981 138.195 229.986 141.513 229.986 145.519V169.36Z" fill="#5892AC"/>
<path d="M210.047 132.083H224.047V128.972H210.047V132.083ZM226.047 134.084H208.047V126.972H226.047V134.084Z" fill="#5892AC"/>
<path d="M211.714 157.581H222.381V149.415H211.714V157.581ZM224.381 159.581H209.714V147.415H224.381V159.581Z" fill="#5892AC"/>
<path d="M168.773 167.36H190.653V145.519C190.653 142.277 188.015 139.639 184.773 139.639H183.773V134.079H175.653V139.639H174.653C171.411 139.639 168.773 142.277 168.773 145.519V167.36ZM192.653 169.36H166.773V145.519C166.773 141.513 169.777 138.195 173.653 137.703V132.079H185.773V137.703C189.648 138.195 192.653 141.513 192.653 145.519V169.36Z" fill="#5892AC"/>
<path d="M172.714 132.083H186.714V128.972H172.714V132.083ZM188.714 134.084H170.714V126.972H188.714V134.084Z" fill="#5892AC"/>
<path d="M168.773 157.581H190.653V149.415H168.773V157.581ZM192.653 159.581H166.773V147.415H192.653V159.581Z" fill="#5892AC"/>
<path d="M426.306 167.357H443.862V134.084H426.306V167.357ZM445.862 169.357H424.306V132.083H445.862V169.357Z" fill="#5892AC"/>
<path d="M425.675 154.999L424.938 153.139C444.883 145.221 444.883 145.217 445.423 145.588L444.264 147.219L444.861 146.416L445.103 147.384C444.376 147.601 433.086 152.056 425.675 154.999Z" fill="#5892AC"/>
<path d="M425.675 148.332L424.938 146.472C444.883 138.555 444.883 138.552 445.423 138.921L444.264 140.552L444.861 139.749L445.103 140.717C444.376 140.935 433.086 145.389 425.675 148.332Z" fill="#5892AC"/>
<path d="M456.973 167.357H474.529V134.084H456.973V167.357ZM476.529 169.357H454.973V132.083H476.529V169.357Z" fill="#5892AC"/>
<path d="M457.14 154.217C456.747 154.217 456.344 154.209 455.935 154.195L456.011 152.195C469.868 152.724 474.581 143.239 474.628 143.143L476.429 144.008C476.224 144.436 471.356 154.217 457.14 154.217Z" fill="#5892AC"/>
<path d="M61.3643 340.203H603.364V329.357H61.3643V340.203ZM605.364 342.203H59.3643V327.357H605.364V342.203Z" fill="#5892AC"/>
<path d="M496.973 327.357H514.529V294.084H496.973V327.357ZM516.529 329.357H494.973V292.084H516.529V329.357Z" fill="#5892AC"/>
<path d="M496.973 316.865H514.529V304.576H496.973V316.865ZM516.529 318.865H494.973V302.576H516.529V318.865Z" fill="#5892AC"/>
<path d="M523.639 327.357H541.195V294.084H523.639V327.357ZM543.195 329.357H521.639V292.084H543.195V329.357Z" fill="#5892AC"/>
<path d="M523.639 316.865H541.195V304.576H523.639V316.865ZM543.195 318.865H521.639V302.576H543.195V318.865Z" fill="#5892AC"/>
<path d="M366.306 327.357H383.862V307.417H366.306V327.357ZM385.862 329.357H364.306V305.417H385.862V329.357Z" fill="#5892AC"/>
<path d="M366.306 312.195H383.862V307.417H366.306V312.195ZM385.862 314.195H364.306V305.417H385.862V314.195Z" fill="#5892AC"/>
<path d="M550.306 327.357H567.862V307.417H550.306V327.357ZM569.862 329.357H548.306V305.417H569.862V329.357Z" fill="#5892AC"/>
<path d="M550.306 312.195H567.862V307.417H550.306V312.195ZM569.862 314.195H548.306V305.417H569.862V314.195Z" fill="#5892AC"/>
<path d="M404.973 327.36H422.533V303.747C422.533 300.931 420.243 298.639 417.426 298.639H416.426L416.414 297.639V288.972H411.081V298.639H410.081C407.263 298.639 404.973 300.931 404.973 303.747V327.36ZM424.533 329.36H402.973V303.747C402.973 300.167 405.634 297.197 409.081 296.709V286.972H418.414V296.709C421.871 297.195 424.533 300.165 424.533 303.747V329.36Z" fill="#5892AC"/>
<path d="M413.972 307.417C411.986 307.417 410.306 310.063 410.306 313.195C410.306 316.327 411.986 318.972 413.972 318.972C415.96 318.972 417.639 316.327 417.639 313.195C417.639 310.063 415.96 307.417 413.972 307.417ZM413.972 320.972C410.796 320.972 408.306 317.556 408.306 313.195C408.306 308.833 410.796 305.417 413.972 305.417C417.15 305.417 419.639 308.833 419.639 313.195C419.639 317.556 417.15 320.972 413.972 320.972Z" fill="#5892AC"/>
<path d="M417.413 294.084H410.08V292.084H417.413V294.084Z" fill="#5892AC"/>
<path d="M127.64 327.36H145.199V303.747C145.199 300.931 142.909 298.639 140.093 298.639H139.093L139.08 297.639V288.972H133.747V298.639H132.746C129.93 298.639 127.64 300.931 127.64 303.747V327.36ZM147.199 329.36H125.64V303.747C125.64 300.167 128.3 297.197 131.746 296.709V286.972H141.08V296.709C144.537 297.195 147.199 300.165 147.199 303.747V329.36Z" fill="#5892AC"/>
<path d="M136.639 307.417C134.653 307.417 132.974 310.063 132.974 313.195C132.974 316.327 134.653 318.972 136.639 318.972C138.627 318.972 140.306 316.327 140.306 313.195C140.306 310.063 138.627 307.417 136.639 307.417ZM136.639 320.972C133.462 320.972 130.974 317.556 130.974 313.195C130.974 308.833 133.462 305.417 136.639 305.417C139.818 305.417 142.306 308.833 142.306 313.195C142.306 317.556 139.818 320.972 136.639 320.972Z" fill="#5892AC"/>
<path d="M140.081 294.084H132.747V292.084H140.081V294.084Z" fill="#5892AC"/>
<path d="M100.974 327.36H118.533V303.747C118.533 300.931 116.243 298.639 113.427 298.639H112.427L112.414 297.639V288.972H107.08V298.639H106.08C103.264 298.639 100.974 300.931 100.974 303.747V327.36ZM120.533 329.36H98.9736V303.747C98.9736 300.167 101.634 297.197 105.08 296.709V286.972H114.414V296.709C117.872 297.195 120.533 300.165 120.533 303.747V329.36Z" fill="#5892AC"/>
<path d="M109.973 307.417C107.985 307.417 106.307 310.063 106.307 313.195C106.307 316.327 107.985 318.972 109.973 318.972C111.961 318.972 113.64 316.327 113.64 313.195C113.64 310.063 111.961 307.417 109.973 307.417ZM109.973 320.972C106.795 320.972 104.307 317.556 104.307 313.195C104.307 308.833 106.795 305.417 109.973 305.417C113.151 305.417 115.64 308.833 115.64 313.195C115.64 317.556 113.151 320.972 109.973 320.972Z" fill="#5892AC"/>
<path d="M113.413 294.084H106.08V292.084H113.413V294.084Z" fill="#5892AC"/>
<path d="M316.306 327.357H357.972V301.972H316.306V327.357ZM359.972 329.357H314.306V299.972H359.972V329.357Z" fill="#5892AC"/>
<path d="M351.972 309.167H337.139V307.167H351.972V309.167Z" fill="#5892AC"/>
<path d="M351.972 315.665H337.139V313.665H351.972V315.665Z" fill="#5892AC"/>
<path d="M351.972 322.164H337.139V320.164H351.972V322.164Z" fill="#5892AC"/>
<path d="M323.973 318.972H329.306V309.167H323.973V318.972ZM331.306 320.972H321.973V307.167H331.306V320.972Z" fill="#5892AC"/>
<path d="M294.418 307.417C292.43 307.417 290.751 310.063 290.751 313.195C290.751 316.327 292.43 318.972 294.418 318.972C296.406 318.972 298.084 316.327 298.084 313.195C298.084 310.063 296.406 307.417 294.418 307.417ZM294.418 320.972C291.24 320.972 288.751 317.556 288.751 313.195C288.751 308.833 291.24 305.417 294.418 305.417C297.595 305.417 300.084 308.833 300.084 313.195C300.084 317.556 297.595 320.972 294.418 320.972Z" fill="#5892AC"/>
<path d="M283.195 327.357H305.639V299.639H283.195V327.357ZM307.639 329.357H281.195V297.639H307.639V329.357Z" fill="#5892AC"/>
<path d="M263.751 307.417C261.763 307.417 260.084 310.063 260.084 313.195C260.084 316.327 261.763 318.972 263.751 318.972C265.739 318.972 267.417 316.327 267.417 313.195C267.417 310.063 265.739 307.417 263.751 307.417ZM263.751 320.972C260.573 320.972 258.084 317.556 258.084 313.195C258.084 308.833 260.573 305.417 263.751 305.417C266.928 305.417 269.417 308.833 269.417 313.195C269.417 317.556 266.928 320.972 263.751 320.972Z" fill="#5892AC"/>
<path d="M252.528 327.357H274.972V299.639H252.528V327.357ZM276.972 329.357H250.528V297.639H276.972V329.357Z" fill="#5892AC"/>
<path d="M222.106 327.36H243.986V305.519C243.986 302.277 241.348 299.639 238.106 299.639H237.106V294.079H228.986V299.639H227.986C224.744 299.639 222.106 302.277 222.106 305.519V327.36ZM245.986 329.36H220.106V305.519C220.106 301.513 223.11 298.195 226.986 297.703V292.079H239.106V297.703C242.981 298.195 245.986 301.513 245.986 305.519V329.36Z" fill="#5892AC"/>
<path d="M226.047 292.084H240.047V288.972H226.047V292.084ZM242.047 294.084H224.047V286.972H242.047V294.084Z" fill="#5892AC"/>
<path d="M227.714 317.581H238.381V309.415H227.714V317.581ZM240.381 319.581H225.714V307.415H240.381V319.581Z" fill="#5892AC"/>
<path d="M191.44 327.36H213.32V305.519C213.32 302.277 210.682 299.639 207.44 299.639H206.44V294.079H198.32V299.639H197.32C194.078 299.639 191.44 302.277 191.44 305.519V327.36ZM215.32 329.36H189.44V305.519C189.44 301.513 192.444 298.195 196.32 297.703V292.079H208.44V297.703C212.315 298.195 215.32 301.513 215.32 305.519V329.36Z" fill="#5892AC"/>
<path d="M195.38 292.084H209.38V288.972H195.38V292.084ZM211.38 294.084H193.38V286.972H211.38V294.084Z" fill="#5892AC"/>
<path d="M197.047 317.581H207.714V309.415H197.047V317.581ZM209.714 319.581H195.047V307.415H209.714V319.581Z" fill="#5892AC"/>
<path d="M154.106 327.36H175.986V305.519C175.986 302.277 173.348 299.639 170.106 299.639H169.106V294.079H160.986V299.639H159.986C156.744 299.639 154.106 302.277 154.106 305.519V327.36ZM177.986 329.36H152.106V305.519C152.106 301.513 155.11 298.195 158.986 297.703V292.079H171.106V297.703C174.981 298.195 177.986 301.513 177.986 305.519V329.36Z" fill="#5892AC"/>
<path d="M158.047 292.084H172.047V288.972H158.047V292.084ZM174.047 294.084H156.047V286.972H174.047V294.084Z" fill="#5892AC"/>
<path d="M154.106 317.581H175.986V309.415H154.106V317.581ZM177.986 319.581H152.106V307.415H177.986V319.581Z" fill="#5892AC"/>
<path d="M435.639 327.357H453.195V294.084H435.639V327.357ZM455.195 329.357H433.639V292.084H455.195V329.357Z" fill="#5892AC"/>
<path d="M435.008 314.999L434.271 313.139C454.215 305.221 454.217 305.221 454.756 305.588L453.597 307.219L454.194 306.416L454.436 307.384C453.709 307.601 442.419 312.056 435.008 314.999Z" fill="#5892AC"/>
<path d="M435.008 308.332L434.271 306.472C454.215 298.555 454.217 298.551 454.756 298.921L453.597 300.552L454.194 299.749L454.436 300.717C453.709 300.935 442.419 305.389 435.008 308.332Z" fill="#5892AC"/>
<path d="M466.306 327.357H483.862V294.084H466.306V327.357ZM485.862 329.357H464.306V292.084H485.862V329.357Z" fill="#5892AC"/>
<path d="M466.474 314.217C466.081 314.217 465.678 314.209 465.269 314.195L465.345 312.195C479.19 312.736 483.915 303.239 483.962 303.143L485.763 304.008C485.558 304.436 480.69 314.217 466.474 314.217Z" fill="#5892AC"/>
<path d="M469.763 115H374.532V113H469.763V115Z" fill="#5892AC"/>
<path d="M481.195 104.056H385.964V102.056H481.195V104.056Z" fill="#5892AC"/>
<path d="M492.625 93.1121H397.395V91.1121H492.625V93.1121Z" fill="#5892AC"/>
<path d="M504.056 82.168H408.825V80.168H504.056V82.168Z" fill="#5892AC"/>
<path d="M515.487 71.2241H420.256V69.2241H515.487V71.2241Z" fill="#5892AC"/>
</g>
<path d="M410.666 214.284C408.862 214.64 400.477 219.713 399.017 222.476C394.776 230.497 402.326 353.943 404.832 356.379C406.924 358.412 466.101 359.117 468.841 353.777C470.644 350.264 477.957 234.928 473.912 223.16C473.43 221.764 467.408 214.227 466.298 213.965C455.533 211.428 450.158 210.34 439.076 209.843C428.718 209.377 420.569 212.333 410.666 214.284Z" fill="#98AFE0"/>
<path d="M411.193 220.533C413.949 221.691 416.905 222.369 419.891 222.531C418.969 223.067 414.487 225.449 414.697 225.733C417.601 229.653 429.643 233.012 431.963 233.089C435.597 233.211 449.4 227.832 451.533 224.887C450.399 224.336 449.263 223.787 448.128 223.237C449.769 221.633 451.637 220.259 453.656 219.167C453.921 213.119 449.115 206.307 445.109 205.316C441.516 204.428 424.793 205.903 421.251 206.977C414.58 209 411.436 220.636 411.193 220.533Z" fill="white"/>
<path d="M445.592 216.907C445.656 220.129 438.488 233.327 431.963 233.089C426.657 232.897 421.777 219.599 421.553 218.952C421.436 218.613 421.48 215.495 421.361 211.125C421.187 204.417 420.597 194.796 418.361 187.941C417.361 184.881 442.297 181.777 443.547 183.085C444.857 184.483 444.649 186.543 444.649 188.383C444.665 191.236 444.709 193.899 444.783 196.385C445.019 205.491 445.519 212.125 445.592 216.907Z" fill="#EDCA79"/>
<path d="M444.783 196.385C442.885 200.695 440.309 204.593 436.427 207.124C432.573 209.64 426.673 210.964 421.361 211.125C421.187 204.417 420.597 194.796 418.361 187.941C417.361 184.881 442.297 181.777 443.547 183.085C444.857 184.483 444.649 186.543 444.649 188.383C444.665 191.236 444.709 193.899 444.783 196.385Z" fill="#DAB265"/>
<path d="M420.584 355.193C414.302 354.899 394.24 357.808 388.164 356.204C385.368 343.907 387.956 313.38 387.851 300.761C387.624 273.595 386.439 267.328 386.423 237.135C386.42 231.216 389.424 223.1 392.132 217.833C393.646 214.877 405.21 211.803 412.83 210.464C415.17 210.052 417.14 209.816 418.332 209.787C413.287 214.597 412.712 240.753 413.815 269.588C415.346 309.779 420.142 355.179 420.584 355.193Z" fill="white"/>
<path d="M288.975 228.095C287.695 228.196 286.396 228.676 285.158 228.333C283.355 227.832 282.475 225.861 281.694 224.161C280.912 222.46 279.619 220.585 277.75 220.647C275.796 220.711 275.818 223.321 276.167 225.244C276.516 227.167 277.806 228.848 279.14 230.275C276.247 232.237 273.371 233.62 272.898 231.775C270.942 224.16 265.186 223.084 263.302 222.8C261.618 222.547 259.739 223.345 259.611 225.044C259.43 227.483 261.894 230.507 262.459 232.804C263.359 236.451 262.774 239.037 264.23 240.396C268.146 244.052 270.84 242.38 275.731 241.973C280.62 241.567 283.614 241.896 287.3 245.135C291.627 248.936 298.704 244.532 299.22 238.939C299.684 233.911 294.054 227.695 288.975 228.095Z" fill="#EDCA79"/>
<path d="M299.212 236.069C298.969 235.747 298.664 235.392 298.258 235.399C297.985 235.403 297.748 235.576 297.529 235.743C293.47 238.853 289.526 242.116 285.712 245.521C285.472 245.735 285.218 245.976 285.177 246.295C285.126 246.675 285.397 247.016 285.654 247.303C287.86 249.76 290.286 252.016 292.898 254.035C293.165 254.24 293.449 254.451 293.782 254.491C294.341 254.559 294.828 254.141 295.238 253.759C297.258 251.876 304.369 248.235 305.084 245.687C305.901 242.763 300.813 238.191 299.212 236.069Z" fill="#98AFE0"/>
<path d="M352.36 275.2C349.86 278.103 348.361 302.001 349.893 302.889C365.444 311.889 380.889 278.667 389.248 267.293C396.853 256.943 402.9 243.407 404.634 230.679C405.421 224.896 404.085 214.913 396.493 215.62C390.266 216.199 384.002 224.684 380.528 229.196C370.196 242.608 362.16 263.823 352.36 275.2Z" fill="white"/>
<path d="M304.123 238.796C297.544 243.051 292.952 246.973 287.395 252.497C295.683 260.361 344.295 301.348 349.893 302.889C360.889 305.916 364.009 300.043 364.692 294.589C365.617 287.183 360.456 281.236 352.36 275.2C338.937 265.196 317.419 250.235 304.123 238.796Z" fill="white"/>
<path d="M413.814 270.084L400.501 250.136L409.181 244.619L400.501 240.676C403.958 223.861 411.474 214.121 411.474 214.121C414.398 209.984 418.332 206.977 421.25 206.977C416.204 211.788 412.712 241.249 413.814 270.084Z" fill="#DBDBE9"/>
<path d="M446.216 355.193C452.498 354.899 474.822 357.448 480.898 355.845C483.694 343.545 478.978 320.66 478.693 308.044C478.11 282.445 479.576 272.767 478.324 242.608C478.074 236.695 477.374 221.629 474.668 216.363C473.152 213.405 461.589 211.803 453.97 210.464C451.63 210.052 449.658 209.816 448.468 209.787C453.513 214.597 454.086 240.753 452.984 269.588C451.454 309.779 446.657 355.179 446.216 355.193Z" fill="white"/>
<path d="M485.139 222.864C490.707 230.392 497.09 262.977 498.063 268.887C501.803 291.611 504.544 311.955 506.89 349.867C506.912 350.231 487.27 350.388 487.206 349.796C483.351 313.511 480.371 302.324 476.502 276.456C473.707 257.768 467.89 213.181 468.974 213.415C479.502 215.675 483.376 220.481 485.139 222.864Z" fill="white"/>
<path d="M452.984 270.084L466.299 250.136L457.619 244.619L466.299 240.676C462.84 223.861 453.971 210.959 453.971 210.959C450.005 205.809 446.301 205.345 445.109 205.316C450.155 210.127 454.087 241.249 452.984 270.084Z" fill="#DBDBE9"/>
<path d="M285.425 233.771L266.564 233.963L266.22 200.295L285.081 200.103L285.425 233.771Z" fill="white"/>
<path d="M281.376 216.597L269.904 216.715L269.791 205.699L281.264 205.581L281.376 216.597Z" fill="#98AFE0"/>
<path d="M281.575 220.247H270.04V218.775H281.575V220.247Z" fill="#6D7F80"/>
<path d="M281.667 223.041H270.135V221.569H281.667V223.041Z" fill="#6D7F80"/>
<path d="M281.76 225.836H270.227V224.365H281.76V225.836Z" fill="#6D7F80"/>
<path d="M281.854 228.632H270.32V227.16H281.854V228.632Z" fill="#6D7F80"/>
<path d="M473.327 246.923C471.034 237.711 471.784 229.477 471.832 220.211C471.835 219.601 470.974 219.511 470.794 220.071C468.046 228.551 469.639 238.889 472.064 247.272C472.299 248.081 473.531 247.744 473.327 246.923Z" fill="#ECECEC"/>
<path d="M389.992 255.533C389.304 245.479 389.759 236.337 390.764 226.348C390.831 225.679 389.891 225.673 389.68 226.201C386.12 235.148 387.919 246.283 389.074 255.533C389.144 256.104 390.034 256.136 389.992 255.533Z" fill="#ECECEC"/>
<path d="M350.857 276.667C347.861 280.025 346.344 284.192 345.545 288.569C345.441 289.141 345.616 289.723 346.14 290.031C346.541 290.265 346.695 290.297 347.139 290.161C347.731 289.979 348.029 289.501 348.088 288.913C348.491 284.835 349.568 280.911 352.067 277.6C352.592 276.904 351.435 276.019 350.857 276.667Z" fill="#ECECEC"/>
<path d="M350.836 277.056C349.404 281.192 349.3 287.377 352.688 290.673C353.228 291.199 354.239 290.677 353.994 289.913C353.394 288.035 352.35 286.413 351.942 284.449C351.45 282.085 351.466 279.731 351.967 277.367C352.124 276.627 351.084 276.343 350.836 277.056Z" fill="#ECECEC"/>
<path d="M418.88 235.768C428.126 238.772 438.288 240.368 447.019 235.065C447.93 234.512 447.134 233.219 446.195 233.656C437.066 237.907 428.708 236.931 419.248 234.439C418.384 234.211 418.039 235.495 418.88 235.768Z" fill="#7E9DD8"/>
<path d="M404.618 193.629C406.607 201.828 414.002 205.64 416.354 205.652C420.979 205.675 422.052 206.195 426.572 205.209C431.963 204.035 435.804 200.356 439.942 196.311C451.804 184.721 450.354 168.82 445.66 152.913C443.424 145.335 438.97 142.587 434.496 142.209C426.991 141.576 411.283 141.361 404.796 145.189C397.894 149.261 401.154 179.365 404.618 193.629Z" fill="#EDCA79"/>
<path d="M395.963 144.312C395.975 147.109 397.694 149.831 400.212 151.047C402.912 152.351 406.083 151.937 409.059 151.571C416.164 150.696 423.324 150.256 430.483 150.255C434.167 150.253 438.279 150.553 440.774 153.264C442.784 155.448 443.183 158.624 443.486 161.579C443.842 165.052 444.198 168.527 444.554 172C444.767 174.073 444.906 185.305 445.599 188.76C446.01 190.803 449.631 187.52 451.255 186.216C458.37 177.255 459.935 141.707 451.186 141.116C449.835 141.025 448.372 141.588 447.18 140.948C446.396 140.528 446.007 139.648 445.578 138.869C443.563 135.212 439.695 132.865 435.666 131.767C431.638 130.668 427.403 130.664 423.226 130.667C413.747 130.675 395.895 130.68 395.963 144.312Z" fill="#3C5053"/>
<path d="M451.482 169.575C450.794 168.179 449.888 163.356 441.509 169.045C440.346 169.836 440.02 177.555 441.87 179.428C443.454 181.031 446.434 180.636 448.605 179.523C452.336 177.608 452.173 170.969 451.482 169.575Z" fill="#EDCA79"/>
<path d="M403.431 161.611C404.875 160.777 406.08 159.993 407.816 159.908C409.179 159.84 410.455 160.731 411.737 160.465C412.065 160.397 412.325 159.967 412.201 159.645C411.567 157.995 408.977 157.853 407.46 158.028C405.657 158.235 403.549 159.181 402.692 160.872C402.453 161.341 402.944 161.892 403.431 161.611Z" fill="#3C5053"/>
<path d="M421.966 159.652C423.622 158.696 425.396 158.071 427.333 158.163C429.165 158.248 430.529 159.284 432.245 159.671C432.745 159.784 433.158 159.269 432.906 158.809C430.77 154.921 423.868 156.136 421.254 158.732C420.782 159.201 421.386 159.987 421.966 159.652Z" fill="#3C5053"/>
<path d="M416.136 168.36C416.746 173.057 416.158 177.051 412.382 180.135C411.034 181.235 409.944 182.767 410.454 184.619C411.2 187.325 416.081 188.521 418.326 187.236C418.797 186.967 418.73 186.157 418.17 186.037C416.908 185.768 415.601 186.053 414.326 185.721C413.8 185.608 413.304 185.413 412.836 185.139C411.553 183.436 411.912 182.059 413.91 181.004C414.417 180.491 414.973 180.141 415.444 179.572C418.038 176.439 417.913 171.973 417.286 168.204C417.18 167.56 416.049 167.703 416.136 168.36Z" fill="#3C5053"/>
<path d="M413.594 190.213C413.939 190.225 414.284 190.217 414.63 190.224C414.898 190.219 415.166 190.213 415.434 190.207L413.594 190.213Z" fill="white"/>
<path d="M413.337 190.252C413.689 191.751 416.169 196.952 419.545 196.952C422.789 196.952 425.868 192.057 425.75 189.341C422.11 190.016 413.768 190.244 413.337 190.252Z" fill="white"/>
<path d="M431.099 168.36C431.099 170.584 430.179 172.388 429.042 172.388C427.906 172.388 426.984 170.584 426.984 168.36C426.984 166.135 427.906 164.332 429.042 164.332C430.179 164.332 431.099 166.135 431.099 168.36Z" fill="#3C5053"/>
<path d="M411.475 169.261C411.475 171.487 410.554 173.291 409.418 173.291C408.28 173.291 407.36 171.487 407.36 169.261C407.36 167.037 408.28 165.233 409.418 165.233C410.554 165.233 411.475 167.037 411.475 169.261Z" fill="#3C5053"/>
<path d="M247.095 330.649H149.471C147.907 330.649 146.584 329.489 146.382 327.939L138.495 267.856C138.25 265.991 139.702 264.335 141.584 264.335H239.21C240.774 264.335 242.095 265.495 242.298 267.045L250.184 327.128C250.43 328.993 248.978 330.649 247.095 330.649Z" fill="white"/>
<path d="M197.106 306.628C191.951 306.628 187.772 310.805 187.772 315.961V349.333H206.439V315.961C206.439 310.805 202.26 306.628 197.106 306.628Z" fill="#BEDED5"/>
<path d="M240.255 344.36H154.197V349.333H240.255V344.36Z" fill="white"/>
<path d="M258.977 278.68H194.941V252.505H258.977V278.68Z" fill="#6D7F80"/>
<path d="M252.5 272.621H201.419V258.564H252.5V272.621Z" fill="#BEDED5"/>
<path d="M231.007 349.333H222.912V275.36H231.007V349.333Z" fill="#6D7F80"/>
<path d="M579.556 582.252C579.556 593.036 466.532 601.777 327.111 601.777C187.691 601.777 74.667 593.036 74.667 582.252C74.667 571.469 187.691 562.727 327.111 562.727C466.532 562.727 579.556 571.469 579.556 582.252Z" fill="#EEF1EF"/>
<path d="M122.667 578.667H536V371.333H122.667V578.667Z" fill="#D5F1EE"/>
<path d="M122.667 378H536V371.333H122.667V378Z" fill="#8CB1AC"/>
<path d="M122.667 578.667H536V549.777H122.667V578.667Z" fill="#BEDED5"/>
<path d="M108.188 349.333H551.207V371.333H108.188V349.333Z" fill="#6D7F80"/>
<path d="M178.223 399.333H144.667V396.667H178.223V399.333Z" fill="white"/>
<path d="M178.223 412.756H144.667V410.089H178.223V412.756Z" fill="white"/>
<path d="M178.223 426.18H144.667V423.513H178.223V426.18Z" fill="white"/>
<path d="M178.223 439.603H144.667V436.936H178.223V439.603Z" fill="white"/>
<path d="M178.223 453.027H144.667V450.36H178.223V453.027Z" fill="white"/>
<path d="M178.223 466.449H144.667V463.783H178.223V466.449Z" fill="white"/>
<path d="M178.223 479.872H144.667V477.205H178.223V479.872Z" fill="white"/>
<path d="M178.223 493.296H144.667V490.629H178.223V493.296Z" fill="white"/>
<path d="M178.223 506.719H144.667V504.052H178.223V506.719Z" fill="white"/>
<path d="M178.223 520.141H144.667V517.475H178.223V520.141Z" fill="white"/>
<path d="M307.253 406.253C312.012 406.253 314.989 408.721 314.989 412.716C314.989 416.686 312.012 419.154 307.253 419.154H303.665V424.066H299.543V406.253H307.253ZM307.024 415.795C309.543 415.795 310.816 414.65 310.816 412.716C310.816 410.757 309.543 409.612 307.024 409.612H303.665V415.795H307.024ZM330.146 406.253H334.268V424.066H330.146V416.762H322.054V424.066H317.932V406.253H322.054V413.276H330.146V406.253ZM351.791 424.066L350.214 420.249H341.944L340.366 424.066H336.142L344.081 406.253H348.153L356.117 424.066H351.791ZM343.267 417.119H348.916L346.091 410.299L343.267 417.119ZM373.742 424.066H369.315L365.879 419.103H365.676H362.088V424.066H357.965V406.253H365.676C370.434 406.253 373.411 408.721 373.411 412.716C373.411 415.388 372.063 417.348 369.747 418.34L373.742 424.066ZM369.238 412.716C369.238 410.757 367.966 409.612 365.447 409.612H362.088V415.821H365.447C367.966 415.821 369.238 414.65 369.238 412.716ZM396.755 424.066H392.887L392.862 413.378L387.62 422.183H385.762L380.545 413.607V424.066H376.678V406.253H380.087L386.754 417.322L393.32 406.253H396.704L396.755 424.066ZM414.289 424.066L412.712 420.249H404.442L402.864 424.066H398.64L406.579 406.253H410.651L418.615 424.066H414.289ZM405.765 417.119H411.414L408.589 410.299L405.765 417.119ZM428.74 424.371C423.218 424.371 419.095 420.528 419.095 415.159C419.095 409.79 423.218 405.948 428.765 405.948C431.844 405.948 434.414 407.067 436.094 409.103L433.447 411.546C432.251 410.172 430.75 409.459 428.969 409.459C425.635 409.459 423.269 411.8 423.269 415.159C423.269 418.518 425.635 420.859 428.969 420.859C430.75 420.859 432.251 420.147 433.447 418.747L436.094 421.19C434.414 423.251 431.844 424.371 428.74 424.371ZM454.175 406.253L447.253 417.755V424.066H443.131V417.704L436.235 406.253H440.612L445.37 414.167L450.129 406.253H454.175Z" fill="#1E3A8A"/>
<path d="M492.621 422.919C492.621 422.189 493.215 421.595 493.945 421.595H503.152V407.916H493.945C493.215 407.916 492.621 407.323 492.621 406.592V397.384H478.943V406.592C478.943 407.323 478.351 407.916 477.619 407.916H468.412V421.595H477.619C478.351 421.595 478.943 422.189 478.943 422.919V432.127H492.621V422.919ZM476.295 433.451V424.244H467.087C466.356 424.244 465.763 423.649 465.763 422.919V406.592C465.763 405.861 466.356 405.268 467.087 405.268H476.295V396.061C476.295 395.329 476.887 394.737 477.619 394.737H493.945C494.677 394.737 495.269 395.329 495.269 396.061V405.268H504.476C505.207 405.268 505.8 405.861 505.8 406.592V422.919C505.8 423.649 505.207 424.244 504.476 424.244H495.269V433.451C495.269 434.181 494.677 434.773 493.945 434.773H477.619C476.887 434.773 476.295 434.181 476.295 433.451Z" fill="#1E3A8A"/>
<path d="M474.143 413.257H484.687V400.5H483.357V411.927H474.143V413.257Z" fill="white"/>
<path d="M488.233 423.499H489.563V417.512H495.992V416.183H488.233V423.499Z" fill="white"/>
</svg>
