<svg width="21" height="20" viewBox="0 0 21 20" fill="none" xmlns="http://www.w3.org/2000/svg">
<path d="M13.5827 14.4166C13.916 14.75 13.916 15.25 13.5827 15.5833C13.416 15.75 13.2493 15.8333 12.9993 15.8333C12.7493 15.8333 12.5827 15.75 12.416 15.5833L7.41602 10.5833C7.08268 10.25 7.08268 9.74996 7.41602 9.41663L12.416 4.41663C12.7493 4.08329 13.2493 4.08329 13.5827 4.41663C13.916 4.74996 13.916 5.24996 13.5827 5.58329L9.16602 9.99996L13.5827 14.4166Z" fill="#111111"/>
<mask id="mask0_486_21759" style="mask-type:luminance" maskUnits="userSpaceOnUse" x="7" y="4" width="7" height="12">
<path d="M13.5827 14.4166C13.916 14.75 13.916 15.25 13.5827 15.5833C13.416 15.75 13.2493 15.8333 12.9993 15.8333C12.7493 15.8333 12.5827 15.75 12.416 15.5833L7.41602 10.5833C7.08268 10.25 7.08268 9.74996 7.41602 9.41663L12.416 4.41663C12.7493 4.08329 13.2493 4.08329 13.5827 4.41663C13.916 4.74996 13.916 5.24996 13.5827 5.58329L9.16602 9.99996L13.5827 14.4166Z" fill="white"/>
</mask>
<g mask="url(#mask0_486_21759)">
<rect x="0.5" width="20" height="20" fill="#111111"/>
</g>
</svg>
