<svg width="20" height="21" viewBox="0 0 20 21" fill="none" xmlns="http://www.w3.org/2000/svg">
<path d="M15.5827 14.8206C15.916 15.1467 15.916 15.6358 15.5827 15.9619C15.416 16.125 15.2493 16.2065 14.9993 16.2065C14.7493 16.2065 14.5827 16.125 14.416 15.9619L9.99935 11.6413L5.58268 15.9619C5.41602 16.125 5.24935 16.2065 4.99935 16.2065C4.74935 16.2065 4.58268 16.125 4.41602 15.9619C4.08268 15.6358 4.08268 15.1467 4.41602 14.8206L8.83268 10.5L4.41602 6.17933C4.08268 5.85324 4.08268 5.36411 4.41602 5.03802C4.74935 4.71194 5.24935 4.71194 5.58268 5.03802L9.99935 9.35867L14.416 5.03802C14.7493 4.71194 15.2493 4.71194 15.5827 5.03802C15.916 5.36411 15.916 5.85324 15.5827 6.17933L11.166 10.5L15.5827 14.8206Z" fill="black"/>
<mask id="mask0_486_29863" style="mask-type:luminance" maskUnits="userSpaceOnUse" x="4" y="4" width="12" height="13">
<path d="M15.5827 14.8206C15.916 15.1467 15.916 15.6358 15.5827 15.9619C15.416 16.125 15.2493 16.2065 14.9993 16.2065C14.7493 16.2065 14.5827 16.125 14.416 15.9619L9.99935 11.6413L5.58268 15.9619C5.41602 16.125 5.24935 16.2065 4.99935 16.2065C4.74935 16.2065 4.58268 16.125 4.41602 15.9619C4.08268 15.6358 4.08268 15.1467 4.41602 14.8206L8.83268 10.5L4.41602 6.17933C4.08268 5.85324 4.08268 5.36411 4.41602 5.03802C4.74935 4.71194 5.24935 4.71194 5.58268 5.03802L9.99935 9.35867L14.416 5.03802C14.7493 4.71194 15.2493 4.71194 15.5827 5.03802C15.916 5.36411 15.916 5.85324 15.5827 6.17933L11.166 10.5L15.5827 14.8206Z" fill="white"/>
</mask>
<g mask="url(#mask0_486_29863)">
<rect y="0.717285" width="20" height="19.5652" fill="#6E6B7B"/>
</g>
</svg>
