<svg width="24" height="24" viewBox="0 0 24 24" fill="none" xmlns="http://www.w3.org/2000/svg">
<path fill-rule="evenodd" clip-rule="evenodd" d="M21.001 5H17.001V4C17.001 2.3 15.701 1 14.001 1H10.001C8.30098 1 7.00098 2.3 7.00098 4V5H3.00098C2.40098 5 2.00098 5.4 2.00098 6C2.00098 6.6 2.40098 7 3.00098 7H4.00098V20C4.00098 21.7 5.30098 23 7.00098 23H17.001C18.701 23 20.001 21.7 20.001 20V7H21.001C21.601 7 22.001 6.6 22.001 6C22.001 5.4 21.601 5 21.001 5ZM9.00059 3.99995C9.00059 3.39995 9.40059 2.99995 10.0006 2.99995H14.0006C14.6006 2.99995 15.0006 3.39995 15.0006 3.99995V4.99995H9.00059V3.99995ZM17.0006 21C17.6006 21 18.0006 20.6 18.0006 20V7H6.00059V20C6.00059 20.6 6.40059 21 7.00059 21H17.0006Z" fill="black"/>
<mask id="mask0_486_27272" style="mask-type:luminance" maskUnits="userSpaceOnUse" x="2" y="1" width="21" height="22">
<path fill-rule="evenodd" clip-rule="evenodd" d="M21.001 5H17.001V4C17.001 2.3 15.701 1 14.001 1H10.001C8.30098 1 7.00098 2.3 7.00098 4V5H3.00098C2.40098 5 2.00098 5.4 2.00098 6C2.00098 6.6 2.40098 7 3.00098 7H4.00098V20C4.00098 21.7 5.30098 23 7.00098 23H17.001C18.701 23 20.001 21.7 20.001 20V7H21.001C21.601 7 22.001 6.6 22.001 6C22.001 5.4 21.601 5 21.001 5ZM9.00059 3.99995C9.00059 3.39995 9.40059 2.99995 10.0006 2.99995H14.0006C14.6006 2.99995 15.0006 3.39995 15.0006 3.99995V4.99995H9.00059V3.99995ZM17.0006 21C17.6006 21 18.0006 20.6 18.0006 20V7H6.00059V20C6.00059 20.6 6.40059 21 7.00059 21H17.0006Z" fill="white"/>
</mask>
<g mask="url(#mask0_486_27272)">
<rect width="24" height="24" fill="#6E6B7B"/>
</g>
</svg>
