<svg width="167" height="147" viewBox="0 0 167 147" fill="none" xmlns="http://www.w3.org/2000/svg">
<rect x="15.5967" width="54.1523" height="52.6121" rx="10" fill="#FF1F22"/>
<rect x="135.317" y="33.5527" width="30.8458" height="29.9685" rx="10" fill="#E26566"/>
<rect x="0.836914" y="76.4229" width="33.1294" height="32.1872" rx="8" fill="#FF8B8C"/>
<rect x="120.91" y="109.038" width="38.4462" height="37.3527" rx="8" fill="#FFE2E2"/>
<ellipse cx="88.5397" cy="80.0017" rx="63.0378" ry="61.2449" fill="#D70002"/>
<path fill-rule="evenodd" clip-rule="evenodd" d="M113.588 60.7495H102.588V57.9995C102.588 53.3245 99.0129 49.7495 94.3379 49.7495H83.3379C78.6629 49.7495 75.0879 53.3245 75.0879 57.9995V60.7495H64.0879C62.4379 60.7495 61.3379 61.8495 61.3379 63.4995C61.3379 65.1495 62.4379 66.2495 64.0879 66.2495H66.8379V102C66.8379 106.675 70.4129 110.25 75.0879 110.25H102.588C107.263 110.25 110.838 106.675 110.838 102V66.2495H113.588C115.238 66.2495 116.338 65.1495 116.338 63.4995C116.338 61.8495 115.238 60.7495 113.588 60.7495ZM80.5869 57.9998C80.5869 56.3498 81.6869 55.2498 83.3369 55.2498H94.3369C95.9869 55.2498 97.0869 56.3498 97.0869 57.9998V60.7498H80.5869V57.9998ZM102.587 104.749C104.237 104.749 105.337 103.649 105.337 101.999V66.2495H72.3369V101.999C72.3369 103.649 73.4369 104.749 75.0869 104.749H102.587Z" fill="black"/>
<mask id="mask0_486_28335" style="mask-type:luminance" maskUnits="userSpaceOnUse" x="61" y="49" width="56" height="62">
<path fill-rule="evenodd" clip-rule="evenodd" d="M113.588 60.7495H102.588V57.9995C102.588 53.3245 99.0129 49.7495 94.3379 49.7495H83.3379C78.6629 49.7495 75.0879 53.3245 75.0879 57.9995V60.7495H64.0879C62.4379 60.7495 61.3379 61.8495 61.3379 63.4995C61.3379 65.1495 62.4379 66.2495 64.0879 66.2495H66.8379V102C66.8379 106.675 70.4129 110.25 75.0879 110.25H102.588C107.263 110.25 110.838 106.675 110.838 102V66.2495H113.588C115.238 66.2495 116.338 65.1495 116.338 63.4995C116.338 61.8495 115.238 60.7495 113.588 60.7495ZM80.5869 57.9998C80.5869 56.3498 81.6869 55.2498 83.3369 55.2498H94.3369C95.9869 55.2498 97.0869 56.3498 97.0869 57.9998V60.7498H80.5869V57.9998ZM102.587 104.749C104.237 104.749 105.337 103.649 105.337 101.999V66.2495H72.3369V101.999C72.3369 103.649 73.4369 104.749 75.0869 104.749H102.587Z" fill="white"/>
</mask>
<g mask="url(#mask0_486_28335)">
<rect x="55.8369" y="47" width="66" height="66" fill="white"/>
</g>
</svg>
