<svg width="20" height="20" viewBox="0 0 20 20" fill="none" xmlns="http://www.w3.org/2000/svg">
<path fill-rule="evenodd" clip-rule="evenodd" d="M13.8204 1.91675L17.9585 6.08342C18.2896 6.41675 18.2896 6.91675 17.9585 7.25008L7.19938 18.0834C7.03386 18.2501 6.86833 18.3334 6.62004 18.3334H2.48192C1.98535 18.3334 1.6543 18.0001 1.6543 17.5001V13.3334C1.6543 13.0834 1.73706 12.9167 1.90258 12.7501L12.6617 1.91675C12.9928 1.58341 13.4893 1.58341 13.8204 1.91675ZM3.30955 16.6667H6.28899L16.2205 6.66675L13.241 3.66675L3.30955 13.6667V16.6667Z" fill="white"/>
<mask id="mask0_486_30963" style="mask-type:luminance" maskUnits="userSpaceOnUse" x="1" y="1" width="18" height="18">
<path fill-rule="evenodd" clip-rule="evenodd" d="M13.8204 1.91675L17.9585 6.08342C18.2896 6.41675 18.2896 6.91675 17.9585 7.25008L7.19938 18.0834C7.03386 18.2501 6.86833 18.3334 6.62004 18.3334H2.48192C1.98535 18.3334 1.6543 18.0001 1.6543 17.5001V13.3334C1.6543 13.0834 1.73706 12.9167 1.90258 12.7501L12.6617 1.91675C12.9928 1.58341 13.4893 1.58341 13.8204 1.91675ZM3.30955 16.6667H6.28899L16.2205 6.66675L13.241 3.66675L3.30955 13.6667V16.6667Z" fill="white"/>
</mask>
<g mask="url(#mask0_486_30963)">
<rect width="19.863" height="20" fill="#6E6B7B"/>
</g>
</svg>
