<svg width="60" height="60" viewBox="0 0 60 60" fill="none" xmlns="http://www.w3.org/2000/svg">
<circle cx="30" cy="30" r="30" fill="#E8FFF3"/>
<path d="M13.126 23.4H18.562V36H15.646V25.74H13.126V23.4ZM25.0708 28.134C28.7968 28.134 30.2728 29.808 30.2728 32.04C30.2728 34.272 28.6348 36.216 25.0348 36.216C23.2888 36.216 21.4528 35.73 20.2288 34.866L21.3808 32.634C22.3348 33.354 23.6488 33.768 24.9628 33.768C26.4208 33.768 27.3208 33.156 27.3208 32.13C27.3208 31.14 26.6728 30.492 24.3868 30.492H21.1648L21.8128 23.4H29.4988V25.74H24.2428L24.0448 28.134H25.0708ZM34.1961 30.204C32.3601 30.204 31.0641 28.854 31.0641 26.73C31.0641 24.606 32.3601 23.256 34.1961 23.256C36.0321 23.256 37.3101 24.588 37.3101 26.73C37.3101 28.872 36.0321 30.204 34.1961 30.204ZM33.0981 36L41.7021 23.4H43.8441L35.2401 36H33.0981ZM34.1961 28.728C34.9881 28.728 35.5101 28.08 35.5101 26.73C35.5101 25.38 34.9881 24.732 34.1961 24.732C33.4221 24.732 32.8821 25.398 32.8821 26.73C32.8821 28.062 33.4221 28.728 34.1961 28.728ZM42.7461 36.144C40.9281 36.144 39.6321 34.794 39.6321 32.67C39.6321 30.546 40.9281 29.196 42.7461 29.196C44.5821 29.196 45.8781 30.546 45.8781 32.67C45.8781 34.794 44.5821 36.144 42.7461 36.144ZM42.7461 34.668C43.5381 34.668 44.0601 34.002 44.0601 32.67C44.0601 31.338 43.5381 30.672 42.7461 30.672C41.9721 30.672 41.4321 31.32 41.4321 32.67C41.4321 34.02 41.9721 34.668 42.7461 34.668Z" fill="#50CD89"/>
</svg>
