<svg width="18" height="18" viewBox="0 0 18 18" fill="none" xmlns="http://www.w3.org/2000/svg">
<path fill-rule="evenodd" clip-rule="evenodd" d="M8.93835 2.25C14.5365 2.25 17.6714 8.4 17.8207 8.7C17.8954 8.85 17.8954 9.15 17.8207 9.3C17.6714 9.6 14.5365 15.75 8.93835 15.75C3.66909 15.75 0.582103 10.3014 0.113098 9.47355L0.113093 9.47354L0.113083 9.47353C0.0838192 9.42187 0.0647498 9.38822 0.0559813 9.375C-0.0186604 9.15 -0.0186604 8.925 0.0559813 8.7C0.205265 8.4 3.34022 2.25 8.93835 2.25ZM1.54882 9C2.29523 10.2 4.90769 14.25 8.93834 14.25C12.969 14.25 15.5815 10.2 16.3279 9C15.5815 7.8 12.969 3.75 8.93834 3.75C4.90769 3.75 2.22059 7.8 1.54882 9ZM8.93835 6C7.29623 6 5.95268 7.35 5.95268 9C5.95268 10.65 7.29623 12 8.93835 12C10.5805 12 11.924 10.65 11.924 9C11.924 7.35 10.5805 6 8.93835 6ZM7.44551 9C7.44551 9.825 8.11729 10.5 8.93835 10.5C9.75941 10.5 10.4312 9.825 10.4312 9C10.4312 8.175 9.75941 7.5 8.93835 7.5C8.11729 7.5 7.44551 8.175 7.44551 9Z" fill="black"/>
<mask id="mask0_486_21307" style="mask-type:luminance" maskUnits="userSpaceOnUse" x="0" y="2" width="18" height="14">
<path fill-rule="evenodd" clip-rule="evenodd" d="M8.93835 2.25C14.5365 2.25 17.6714 8.4 17.8207 8.7C17.8954 8.85 17.8954 9.15 17.8207 9.3C17.6714 9.6 14.5365 15.75 8.93835 15.75C3.66909 15.75 0.582103 10.3014 0.113098 9.47355L0.113093 9.47354L0.113083 9.47353C0.0838192 9.42187 0.0647498 9.38822 0.0559813 9.375C-0.0186604 9.15 -0.0186604 8.925 0.0559813 8.7C0.205265 8.4 3.34022 2.25 8.93835 2.25ZM1.54882 9C2.29523 10.2 4.90769 14.25 8.93834 14.25C12.969 14.25 15.5815 10.2 16.3279 9C15.5815 7.8 12.969 3.75 8.93834 3.75C4.90769 3.75 2.22059 7.8 1.54882 9ZM8.93835 6C7.29623 6 5.95268 7.35 5.95268 9C5.95268 10.65 7.29623 12 8.93835 12C10.5805 12 11.924 10.65 11.924 9C11.924 7.35 10.5805 6 8.93835 6ZM7.44551 9C7.44551 9.825 8.11729 10.5 8.93835 10.5C9.75941 10.5 10.4312 9.825 10.4312 9C10.4312 8.175 9.75941 7.5 8.93835 7.5C8.11729 7.5 7.44551 8.175 7.44551 9Z" fill="white"/>
</mask>
<g mask="url(#mask0_486_21307)">
<rect width="17.8767" height="18" fill="#6E6B7B"/>
</g>
</svg>
