<svg width="20" height="20" viewBox="0 0 20 20" fill="none" xmlns="http://www.w3.org/2000/svg">
<path d="M16.6673 9.99968C16.6673 10.4997 16.334 10.833 15.834 10.833H10.834V15.833C10.834 16.333 10.5007 16.6663 10.0007 16.6663C9.50065 16.6663 9.16732 16.333 9.16732 15.833V10.833H4.16732C3.66732 10.833 3.33398 10.4997 3.33398 9.99968C3.33398 9.49968 3.66732 9.16634 4.16732 9.16634H9.16732V4.16634C9.16732 3.66634 9.50065 3.33301 10.0007 3.33301C10.5007 3.33301 10.834 3.66634 10.834 4.16634V9.16634H15.834C16.334 9.16634 16.6673 9.49968 16.6673 9.99968Z" fill="black"/>
<mask id="mask0_486_31761" style="mask-type:luminance" maskUnits="userSpaceOnUse" x="3" y="3" width="14" height="14">
<path d="M16.6673 9.99968C16.6673 10.4997 16.334 10.833 15.834 10.833H10.834V15.833C10.834 16.333 10.5007 16.6663 10.0007 16.6663C9.50065 16.6663 9.16732 16.333 9.16732 15.833V10.833H4.16732C3.66732 10.833 3.33398 10.4997 3.33398 9.99968C3.33398 9.49968 3.66732 9.16634 4.16732 9.16634H9.16732V4.16634C9.16732 3.66634 9.50065 3.33301 10.0007 3.33301C10.5007 3.33301 10.834 3.66634 10.834 4.16634V9.16634H15.834C16.334 9.16634 16.6673 9.49968 16.6673 9.99968Z" fill="white"/>
</mask>
<g mask="url(#mask0_486_31761)">
<rect width="20" height="20" fill="#111111"/>
</g>
</svg>
