<svg width="20" height="20" viewBox="0 0 20 20" fill="none" xmlns="http://www.w3.org/2000/svg">
<path d="M16.6673 9.99992C16.6673 10.4999 16.334 10.8333 15.834 10.8333H10.834V15.8333C10.834 16.3333 10.5007 16.6666 10.0007 16.6666C9.50065 16.6666 9.16732 16.3333 9.16732 15.8333V10.8333H4.16732C3.66732 10.8333 3.33398 10.4999 3.33398 9.99992C3.33398 9.49992 3.66732 9.16659 4.16732 9.16659H9.16732V4.16659C9.16732 3.66659 9.50065 3.33325 10.0007 3.33325C10.5007 3.33325 10.834 3.66659 10.834 4.16659V9.16659H15.834C16.334 9.16659 16.6673 9.49992 16.6673 9.99992Z" fill="black"/>
<mask id="mask0_486_30937" style="mask-type:luminance" maskUnits="userSpaceOnUse" x="3" y="3" width="14" height="14">
<path d="M16.6673 9.99992C16.6673 10.4999 16.334 10.8333 15.834 10.8333H10.834V15.8333C10.834 16.3333 10.5007 16.6666 10.0007 16.6666C9.50065 16.6666 9.16732 16.3333 9.16732 15.8333V10.8333H4.16732C3.66732 10.8333 3.33398 10.4999 3.33398 9.99992C3.33398 9.49992 3.66732 9.16659 4.16732 9.16659H9.16732V4.16659C9.16732 3.66659 9.50065 3.33325 10.0007 3.33325C10.5007 3.33325 10.834 3.66659 10.834 4.16659V9.16659H15.834C16.334 9.16659 16.6673 9.49992 16.6673 9.99992Z" fill="white"/>
</mask>
<g mask="url(#mask0_486_30937)">
<rect width="20" height="20" fill="white"/>
</g>
</svg>
