<svg width="20" height="20" viewBox="0 0 20 20" fill="none" xmlns="http://www.w3.org/2000/svg">
<path fill-rule="evenodd" clip-rule="evenodd" d="M14.3337 13.1667L18.0837 16.9167C18.417 17.2501 18.417 17.7501 18.0837 18.0834C17.917 18.2501 17.667 18.3334 17.5003 18.3334C17.3337 18.3334 17.0837 18.2501 16.917 18.0834L13.167 14.3334C11.917 15.2501 10.417 15.8334 8.75033 15.8334C4.83366 15.8334 1.66699 12.6667 1.66699 8.75008C1.66699 4.83342 4.83366 1.66675 8.75033 1.66675C12.667 1.66675 15.8337 4.83342 15.8337 8.75008C15.8337 10.4167 15.2503 12.0001 14.3337 13.1667ZM8.75033 3.33341C5.75033 3.33341 3.33366 5.75008 3.33366 8.75008C3.33366 11.7501 5.75033 14.1667 8.75033 14.1667C10.2503 14.1667 11.5837 13.5834 12.5837 12.5834C13.5837 11.5834 14.167 10.2501 14.167 8.75008C14.167 5.75008 11.7503 3.33341 8.75033 3.33341Z" fill="black"/>
<mask id="mask0_486_27093" style="mask-type:luminance" maskUnits="userSpaceOnUse" x="1" y="1" width="18" height="18">
<path fill-rule="evenodd" clip-rule="evenodd" d="M14.3337 13.1667L18.0837 16.9167C18.417 17.2501 18.417 17.7501 18.0837 18.0834C17.917 18.2501 17.667 18.3334 17.5003 18.3334C17.3337 18.3334 17.0837 18.2501 16.917 18.0834L13.167 14.3334C11.917 15.2501 10.417 15.8334 8.75033 15.8334C4.83366 15.8334 1.66699 12.6667 1.66699 8.75008C1.66699 4.83342 4.83366 1.66675 8.75033 1.66675C12.667 1.66675 15.8337 4.83342 15.8337 8.75008C15.8337 10.4167 15.2503 12.0001 14.3337 13.1667ZM8.75033 3.33341C5.75033 3.33341 3.33366 5.75008 3.33366 8.75008C3.33366 11.7501 5.75033 14.1667 8.75033 14.1667C10.2503 14.1667 11.5837 13.5834 12.5837 12.5834C13.5837 11.5834 14.167 10.2501 14.167 8.75008C14.167 5.75008 11.7503 3.33341 8.75033 3.33341Z" fill="white"/>
</mask>
<g mask="url(#mask0_486_27093)">
<rect width="20" height="20" fill="#6E6B7B"/>
</g>
</svg>
