<svg width="25" height="20" viewBox="0 0 25 20" fill="none" xmlns="http://www.w3.org/2000/svg">
<path d="M13.3869 12.4259C13.3869 12.0692 13.0979 11.7812 12.7423 11.7812C12.3867 11.7812 12.0977 12.0692 12.0977 12.4259C12.0977 12.7815 12.3867 13.0705 12.7423 13.0705C13.0979 13.0705 13.3869 12.7815 13.3869 12.4259Z" fill="white"/>
<path d="M12.5273 19.325C12.5273 19.6806 12.8163 19.9697 13.172 19.9697C13.5276 19.9697 13.8166 19.6806 13.8166 19.325C13.8166 18.9683 13.5276 18.6804 13.172 18.6804C12.8163 18.6804 12.5273 18.9683 12.5273 19.325Z" fill="white"/>
<path d="M12.5273 17.0203C12.5273 17.376 12.8163 17.665 13.172 17.665C13.5276 17.665 13.8166 17.376 13.8166 17.0203C13.8166 16.6637 13.5276 16.3757 13.172 16.3757C12.8163 16.3757 12.5273 16.6637 12.5273 17.0203Z" fill="white"/>
<path d="M8.75879 18.8726C8.75879 19.2293 9.04779 19.5173 9.4034 19.5173C9.75902 19.5173 10.048 19.2293 10.048 18.8726C10.048 18.517 9.75902 18.228 9.4034 18.228C9.04779 18.228 8.75879 18.517 8.75879 18.8726Z" fill="white"/>
<path d="M14.6759 11.3511C14.3203 11.3511 14.0312 11.639 14.0312 11.9957C14.0312 12.3513 14.3203 12.6403 14.6759 12.6403C15.0326 12.6403 15.3205 12.3513 15.3205 11.9957C15.3205 11.639 15.0326 11.3511 14.6759 11.3511Z" fill="white"/>
<path d="M10.378 12.7605C10.0213 12.7605 9.7334 13.0484 9.7334 13.4051C9.7334 13.7607 10.0213 14.0497 10.378 14.0497C10.7336 14.0497 11.0226 13.7607 11.0226 13.4051C11.0226 13.0484 10.7336 12.7605 10.378 12.7605Z" fill="white"/>
<path d="M13.2707 15.0257C13.2707 14.6701 12.9817 14.3811 12.6261 14.3811C12.2704 14.3811 11.9814 14.6701 11.9814 15.0257C11.9814 15.3824 12.2704 15.6703 12.6261 15.6703C12.9817 15.6703 13.2707 15.3824 13.2707 15.0257Z" fill="white"/>
<path d="M10.8087 10.3965C10.452 10.3965 10.1641 10.6855 10.1641 11.0411C10.1641 11.3978 10.452 11.6857 10.8087 11.6857C11.1643 11.6857 11.4533 11.3978 11.4533 11.0411C11.4533 10.6855 11.1643 10.3965 10.8087 10.3965Z" fill="white"/>
<path d="M10.3789 16.5909C10.3789 16.9465 10.6668 17.2355 11.0235 17.2355C11.3791 17.2355 11.6681 16.9465 11.6681 16.5909C11.6681 16.2342 11.3791 15.9463 11.0235 15.9463C10.6668 15.9463 10.3789 16.2342 10.3789 16.5909Z" fill="white"/>
<path d="M9.61736 15.0257C9.61736 14.6701 9.32835 14.3811 8.97274 14.3811C8.61713 14.3811 8.32812 14.6701 8.32812 15.0257C8.32812 15.3824 8.61713 15.6703 8.97274 15.6703C9.32835 15.6703 9.61736 15.3824 9.61736 15.0257Z" fill="white"/>
<path d="M15.5363 15.9837C15.5363 15.6281 15.2473 15.3391 14.8917 15.3391C14.535 15.3391 14.2471 15.6281 14.2471 15.9837C14.2471 16.3404 14.535 16.6283 14.8917 16.6283C15.2473 16.6283 15.5363 16.3404 15.5363 15.9837Z" fill="white"/>
<path d="M15.1064 18.0345C15.1064 18.3912 15.3944 18.6791 15.7511 18.6791C16.1067 18.6791 16.3957 18.3912 16.3957 18.0345C16.3957 17.6789 16.1067 17.3899 15.7511 17.3899C15.3944 17.3899 15.1064 17.6789 15.1064 18.0345Z" fill="white"/>
<path d="M23.3984 1.26227C22.5894 0.454369 21.4936 0.00100888 20.3505 0.00100888C19.2074 0.00100888 18.1116 0.454369 17.3026 1.26227L12.626 5.94108L7.94938 1.26227C6.86002 0.172903 5.27213 -0.251469 3.78405 0.147105C2.29608 0.546751 1.13474 1.70919 0.736169 3.19719C0.338668 4.68516 0.764101 6.27313 1.85348 7.36142L6.79219 12.3012C6.96301 12.4667 7.23375 12.4667 7.4035 12.3012L12.6258 7.07786L17.848 12.3012C18.0178 12.4667 18.2885 12.4667 18.4594 12.3012L23.3981 7.36142C24.2049 6.55245 24.6583 5.45554 24.6583 4.31244C24.6583 3.16826 24.2049 2.07138 23.3981 1.26235L23.3984 1.26227ZM6.7321 3.08863C6.56451 3.25516 6.29376 3.25516 6.12618 3.08863C5.45043 2.41396 4.35567 2.41181 3.67671 3.08434C3.59721 3.16491 3.48763 3.21111 3.37374 3.21111C3.26093 3.21111 3.15135 3.16491 3.07076 3.08434C2.4745 2.32264 4.32773 1.65655 4.90142 1.71777C5.47835 1.65546 7.33697 2.32691 6.7321 3.08863ZM22.1811 6.14504C22.0135 6.31264 21.7406 6.31157 21.573 6.1429C21.4065 5.97422 21.4076 5.70241 21.5752 5.53483C22.2498 4.85908 22.2498 3.76432 21.5752 3.08858C21.4076 2.91991 21.4076 2.64701 21.5752 2.47834C21.7428 2.31182 22.0135 2.31182 22.1811 2.47834C23.192 3.49144 23.192 5.13194 22.1811 6.14504Z" fill="white"/>
<path d="M15.3214 14.4797C15.677 14.4797 15.966 14.1917 15.966 13.835C15.966 13.4794 15.677 13.1904 15.3214 13.1904C14.9647 13.1904 14.6768 13.4794 14.6768 13.835C14.6768 14.1917 14.9647 14.4797 15.3214 14.4797Z" fill="white"/>
</svg>
