<svg width="22" height="20" viewBox="0 0 22 20" fill="none" xmlns="http://www.w3.org/2000/svg">
<path d="M10.3695 1.51371C5.76984 1.51371 2.0412 5.24234 2.0412 9.842C2.0412 14.4417 5.76984 18.1703 10.3695 18.1703C13.6384 18.1703 16.4691 16.2869 17.8328 13.5429L19.1887 14.2169C17.5794 17.4554 14.235 19.6841 10.3694 19.6841C4.93334 19.6841 0.527344 15.2779 0.527344 9.84204C0.527344 4.40622 4.93356 0 10.3694 0C14.235 0 17.5795 2.22776 19.1887 5.46713L17.8328 6.14121C16.469 3.39732 13.6382 1.51371 10.3695 1.51371Z" fill="white"/>
<path d="M11.1272 5.15126V3.78491H9.61337V5.15126C8.44828 5.48093 7.59375 6.55233 7.59375 7.8232C7.59375 9.35612 8.83693 10.5993 10.3698 10.5993C11.0673 10.5993 11.6321 11.1641 11.6321 11.8607C11.6321 12.5582 11.0673 13.1229 10.3698 13.1229C9.67322 13.1229 9.10846 12.5582 9.10846 11.8607V11.4573H7.59375V11.8607C7.59375 13.1316 8.44828 14.203 9.61337 14.5326V15.899H11.1272V14.5326C12.2923 14.203 13.1459 13.1316 13.1459 11.8607C13.1459 10.3278 11.9036 9.08459 10.3698 9.08459C9.67322 9.08459 9.10846 8.51982 9.10846 7.8232C9.10846 7.12571 9.67322 6.56094 10.3698 6.56094C11.0673 6.56094 11.6321 7.12571 11.6321 7.8232V8.2266H13.1459V7.8232C13.1459 6.55226 12.2923 5.48084 11.1272 5.15126Z" fill="white"/>
<path d="M19.6464 10.5993L18.385 11.8607L19.4555 12.9321L22.0095 10.3772V9.30669L19.4555 6.75269L18.385 7.82322L19.6464 9.08461H14.4082V10.5993L19.6464 10.5993Z" fill="white"/>
</svg>
