<svg width="16" height="22" viewBox="0 0 16 22" fill="none" xmlns="http://www.w3.org/2000/svg">
<g clip-path="url(#clip0_1014_4209)">
<path d="M14.2606 2.10183H11.0341V1.98507C11.0341 1.81786 10.8925 1.68243 10.7168 1.68243H9.64841C9.64841 1.67869 9.64939 1.67495 9.64939 1.67122C9.64939 0.801571 8.90917 0.0935059 7.99997 0.0935059C7.09077 0.0935059 6.35054 0.801547 6.35054 1.67122C6.35054 1.67495 6.35152 1.67869 6.35152 1.68243H5.28317C5.10836 1.68243 4.96677 1.81787 4.96677 1.98507V2.10183H1.73927C0.837892 2.10183 0.104492 2.80335 0.104492 3.66553V20.342C0.104492 21.2042 0.837892 21.9057 1.73927 21.9057H14.2608C15.1621 21.9057 15.8955 21.2042 15.8955 20.342L15.8965 3.66553C15.8965 2.80335 15.162 2.10183 14.2606 2.10183ZM7.99989 0.699739C8.56044 0.699739 9.01649 1.13503 9.01649 1.67121C9.01649 1.67494 9.01551 1.67868 9.01551 1.68242H6.98524C6.98524 1.67868 6.98426 1.67494 6.98426 1.67121C6.98426 1.13503 7.43934 0.699739 7.99989 0.699739ZM5.59949 2.28771H10.4002V3.49082C10.4002 3.92331 10.033 4.27452 9.58091 4.27452L6.41891 4.27359C5.96676 4.27359 5.59959 3.92235 5.59959 3.48989L5.59949 2.28771ZM5.02624 3.88316C5.20397 4.45856 5.76061 4.88079 6.41881 4.88079H9.58181C10.241 4.88079 10.7976 4.45858 10.9744 3.88316H14.0339V20.1254H1.96564V3.88316H5.02624ZM15.2625 20.342C15.2625 20.8707 14.8133 21.3004 14.2605 21.3004H1.73904C1.18631 21.3004 0.737089 20.8707 0.737089 20.342V3.66555C0.737089 3.13686 1.18631 2.70717 1.73904 2.70717H4.96554V3.27697H1.73904C1.51541 3.27697 1.33279 3.45164 1.33279 3.66555V20.342C1.33279 20.5559 1.51541 20.7306 1.73904 20.7306H14.2605C14.4842 20.7306 14.6668 20.5559 14.6668 20.342V3.66555C14.6668 3.45164 14.4842 3.27697 14.2605 3.27697H11.034V2.70717H14.2605C14.8133 2.70717 15.2625 3.13686 15.2625 3.66555V20.342Z" fill="white"/>
<path d="M3.95168 8.58428C4.0132 8.64313 4.09426 8.67302 4.17531 8.67302C4.25637 8.67302 4.33742 8.64313 4.39895 8.58428L6.13722 6.92159C6.26124 6.80389 6.26124 6.61146 6.13722 6.49376C6.01417 6.37513 5.813 6.37513 5.68995 6.49376L4.1753 7.94255L3.32765 7.13176C3.2046 7.01313 3.00342 7.01313 2.88037 7.13176C2.75732 7.24946 2.75732 7.44189 2.88037 7.55959L3.95168 8.58428Z" fill="white"/>
<path d="M7.80175 7.16364H12.8975C13.0723 7.16364 13.2139 7.02819 13.2139 6.86099C13.2139 6.69379 13.0723 6.55835 12.8975 6.55835H7.80175C7.62695 6.55835 7.48535 6.6938 7.48535 6.86099C7.48535 7.0282 7.62695 7.16364 7.80175 7.16364Z" fill="white"/>
<path d="M7.80175 8.52102H10.3488C10.5236 8.52102 10.6652 8.38557 10.6652 8.21837C10.6652 8.05117 10.5235 7.91573 10.3488 7.91573L7.80175 7.91479C7.62695 7.91479 7.48535 8.05024 7.48535 8.21744C7.48535 8.38464 7.62695 8.52102 7.80175 8.52102Z" fill="white"/>
<path d="M3.95168 18.511C4.0132 18.5699 4.09426 18.5998 4.17531 18.5998C4.25637 18.5998 4.33742 18.5708 4.39895 18.511L6.13722 16.8483C6.26124 16.7306 6.26124 16.5382 6.13722 16.4205C6.01417 16.3019 5.813 16.3019 5.68995 16.4205L4.1753 17.8693L3.32765 17.0585C3.2046 16.9399 3.00342 16.9399 2.88037 17.0585C2.75732 17.1762 2.75732 17.3686 2.88037 17.4863L3.95168 18.511Z" fill="white"/>
<path d="M7.80175 17.0913H12.8975C13.0723 17.0913 13.2139 16.9559 13.2139 16.7887C13.2139 16.6215 13.0723 16.486 12.8975 16.486L7.80175 16.4851C7.62695 16.4851 7.48535 16.6206 7.48535 16.7877C7.48535 16.9549 7.62695 17.0913 7.80175 17.0913Z" fill="white"/>
<path d="M7.80175 18.4478H10.3488C10.5236 18.4478 10.6652 18.3123 10.6652 18.1451C10.6652 17.9779 10.5235 17.8425 10.3488 17.8425L7.80175 17.8416C7.62695 17.8416 7.48535 17.977 7.48535 18.1442C7.48535 18.3114 7.62695 18.4478 7.80175 18.4478Z" fill="white"/>
<path d="M3.95168 13.5482C4.0132 13.607 4.09426 13.6369 4.17531 13.6369C4.25637 13.6369 4.33742 13.607 4.39895 13.5482L6.13722 11.8855C6.26124 11.7678 6.26124 11.5754 6.13722 11.4577C6.01417 11.34 5.813 11.34 5.68995 11.4577L4.1753 12.9065L3.32765 12.0957C3.2046 11.977 3.00342 11.977 2.88037 12.0957C2.75732 12.2134 2.75732 12.4058 2.88037 12.5235L3.95168 13.5482Z" fill="white"/>
<path d="M7.80175 12.1275H12.8975C13.0723 12.1275 13.2139 11.992 13.2139 11.8239C13.2139 11.6567 13.0723 11.5212 12.8975 11.5212H7.80175C7.62695 11.5212 7.48535 11.6567 7.48535 11.8239C7.48535 11.992 7.62695 12.1275 7.80175 12.1275Z" fill="white"/>
<path d="M7.80175 13.4839H10.3488C10.5236 13.4839 10.6652 13.3485 10.6652 13.1813C10.6652 13.0141 10.5235 12.8777 10.3488 12.8777H7.80175C7.62695 12.8777 7.48535 13.0131 7.48535 13.1813C7.48535 13.3485 7.62695 13.4839 7.80175 13.4839Z" fill="white"/>
</g>
<defs>
<clipPath id="clip0_1014_4209">
<rect width="16" height="22" fill="white"/>
</clipPath>
</defs>
</svg>
