<svg width="10" height="10" viewBox="0 0 10 10" fill="none" xmlns="http://www.w3.org/2000/svg">
<path d="M5.63873 9.28505H3.69368C1.34122 9.28505 0.0478516 7.99168 0.0478516 5.63922V3.69417C0.0478516 1.34171 1.34122 0.0483398 3.69368 0.0483398H5.63873C7.99119 0.0483398 9.28456 1.34171 9.28456 3.69417V5.63922C9.28456 7.99168 7.99119 9.28505 5.63873 9.28505ZM3.69368 1.50665C2.15789 1.50665 1.50618 2.15835 1.50618 3.69415V5.63919C1.50618 7.17499 2.15789 7.82669 3.69368 7.82669H5.63873C7.17453 7.82669 7.82623 7.17499 7.82623 5.63919V3.69415C7.82623 2.15835 7.17453 1.50665 5.63873 1.50665H3.69368Z" fill="white"/>
</svg>
