<svg width="16" height="16" viewBox="0 0 16 16" fill="none" xmlns="http://www.w3.org/2000/svg">
<path d="M5.44667 13.3331C5.58471 12.9431 5.84025 12.6054 6.17812 12.3666C6.51599 12.1278 6.91958 11.9995 7.33333 11.9995C7.74709 11.9995 8.15068 12.1278 8.48855 12.3666C8.82642 12.6054 9.08196 12.9431 9.22 13.3331H16V14.6664H9.22C9.08196 15.0565 8.82642 15.3941 8.48855 15.6329C8.15068 15.8718 7.74709 16 7.33333 16C6.91958 16 6.51599 15.8718 6.17812 15.6329C5.84025 15.3941 5.58471 15.0565 5.44667 14.6664H0V13.3331H5.44667ZM9.44667 7.33336C9.58471 6.94332 9.84025 6.60565 10.1781 6.36683C10.516 6.12801 10.9196 5.99977 11.3333 5.99977C11.7471 5.99977 12.1507 6.12801 12.4885 6.36683C12.8264 6.60565 13.082 6.94332 13.22 7.33336H16V8.66664H13.22C13.082 9.05668 12.8264 9.39434 12.4885 9.63317C12.1507 9.87199 11.7471 10.0002 11.3333 10.0002C10.9196 10.0002 10.516 9.87199 10.1781 9.63317C9.84025 9.39434 9.58471 9.05668 9.44667 8.66664H0V7.33336H9.44667ZM2.78 1.33358C2.91804 0.943546 3.17358 0.605879 3.51145 0.367057C3.84932 0.128236 4.25291 0 4.66667 0C5.08042 0 5.48401 0.128236 5.82188 0.367057C6.15975 0.605879 6.41529 0.943546 6.55333 1.33358H16V2.66687H6.55333C6.41529 3.0569 6.15975 3.39457 5.82188 3.63339C5.48401 3.87221 5.08042 4.00045 4.66667 4.00045C4.25291 4.00045 3.84932 3.87221 3.51145 3.63339C3.17358 3.39457 2.91804 3.0569 2.78 2.66687H0V1.33358H2.78Z" fill="white"/>
</svg>
