<svg width="21" height="21" viewBox="0 0 21 21" fill="none" xmlns="http://www.w3.org/2000/svg">
<g clip-path="url(#clip0_1216_2719)">
<path d="M5.63873 9.28505H3.69368C1.34122 9.28505 0.0478516 7.99168 0.0478516 5.63922V3.69417C0.0478516 1.34171 1.34122 0.0483398 3.69368 0.0483398H5.63873C7.99119 0.0483398 9.28456 1.34171 9.28456 3.69417V5.63922C9.28456 7.99168 7.99119 9.28505 5.63873 9.28505ZM3.69368 1.50665C2.15789 1.50665 1.50618 2.15835 1.50618 3.69415V5.63919C1.50618 7.17499 2.15789 7.82669 3.69368 7.82669H5.63873C7.17453 7.82669 7.82623 7.17499 7.82623 5.63919V3.69415C7.82623 2.15835 7.17453 1.50665 5.63873 1.50665H3.69368Z" fill="white"/>
<path d="M17.3057 9.28505H15.3607C13.0082 9.28505 11.7148 7.99168 11.7148 5.63922V3.69417C11.7148 1.34171 13.0082 0.0483398 15.3607 0.0483398H17.3057C19.6582 0.0483398 20.9516 1.34171 20.9516 3.69417V5.63922C20.9516 7.99168 19.6582 9.28505 17.3057 9.28505ZM15.3607 1.50665C13.8249 1.50665 13.1732 2.15835 13.1732 3.69415V5.63919C13.1732 7.17499 13.8249 7.82669 15.3607 7.82669H17.3057C18.8415 7.82669 19.4932 7.17499 19.4932 5.63919V3.69415C19.4932 2.15835 18.8415 1.50665 17.3057 1.50665H15.3607Z" fill="white"/>
<path d="M17.3057 20.9518H15.3607C13.0082 20.9518 11.7148 19.6584 11.7148 17.306V15.3609C11.7148 13.0085 13.0082 11.7151 15.3607 11.7151H17.3057C19.6582 11.7151 20.9516 13.0085 20.9516 15.3609V17.306C20.9516 19.6584 19.6582 20.9518 17.3057 20.9518ZM15.3607 13.1734C13.8249 13.1734 13.1732 13.8251 13.1732 15.3609V17.3059C13.1732 18.8417 13.8249 19.4934 15.3607 19.4934H17.3057C18.8415 19.4934 19.4932 18.8417 19.4932 17.3059V15.3609C19.4932 13.8251 18.8415 13.1734 17.3057 13.1734H15.3607Z" fill="white"/>
<path d="M5.63873 20.9518H3.69368C1.34122 20.9518 0.0478516 19.6584 0.0478516 17.306V15.3609C0.0478516 13.0085 1.34122 11.7151 3.69368 11.7151H5.63873C7.99119 11.7151 9.28456 13.0085 9.28456 15.3609V17.306C9.28456 19.6584 7.99119 20.9518 5.63873 20.9518ZM3.69368 13.1734C2.15789 13.1734 1.50618 13.8251 1.50618 15.3609V17.3059C1.50618 18.8417 2.15789 19.4934 3.69368 19.4934H5.63873C7.17453 19.4934 7.82623 18.8417 7.82623 17.3059V15.3609C7.82623 13.8251 7.17453 13.1734 5.63873 13.1734H3.69368Z" fill="white"/>
</g>
<defs>
<clipPath id="clip0_1216_2719">
<rect width="21" height="21" fill="white"/>
</clipPath>
</defs>
</svg>
