<svg width="49" height="50" viewBox="0 0 49 50" fill="none" xmlns="http://www.w3.org/2000/svg">
<g opacity="0.2">
<path d="M29.5513 -5.45506C15.7407 -5.45506 4.54541 5.74026 4.54541 19.5509C4.54541 33.3615 15.7407 44.5568 29.5513 44.5568C39.3663 44.5568 47.8657 38.9018 51.96 30.6628L56.0313 32.6868C51.1994 42.4104 41.1577 49.102 29.551 49.102C13.2291 49.102 0 35.8722 0 19.551C0 3.2298 13.2298 -10 29.551 -10C41.1577 -10 51.1995 -3.31108 56.0313 6.41522L51.96 8.43917C47.8653 0.200548 39.3657 -5.45506 29.5513 -5.45506Z" fill="#1E3A8A"/>
<path d="M31.8242 5.46725V1.36475H27.2788V5.46725C23.7806 6.45709 21.2148 9.67398 21.2148 13.4898C21.2148 18.0924 24.9475 21.8251 29.5502 21.8251C31.6444 21.8251 33.3401 23.5209 33.3401 25.6125C33.3401 27.7067 31.6444 29.4025 29.5502 29.4025C27.4585 29.4025 25.7628 27.7067 25.7628 25.6125V24.4013H21.2148V25.6125C21.2148 29.4285 23.7806 32.6455 27.2788 33.6351V37.7376H31.8242V33.6351C35.3224 32.6452 37.8855 29.4283 37.8855 25.6125C37.8855 21.0099 34.1554 17.2772 29.5502 17.2772C27.4585 17.2772 25.7628 15.5814 25.7628 13.4898C25.7628 11.3956 27.4585 9.69985 29.5502 9.69985C31.6444 9.69985 33.3401 11.3956 33.3401 13.4898V14.701H37.8855V13.4898C37.8855 9.67378 35.3223 6.45682 31.8242 5.46725Z" fill="#1E3A8A"/>
<path d="M57.4035 21.8248L53.6161 25.6122L56.8304 28.8291L64.4989 21.1579V17.9436L56.8304 10.2751L53.6161 13.4894L57.4035 17.2768H41.6758V21.8247L57.4035 21.8248Z" fill="#1E3A8A"/>
</g>
</svg>
