<svg width="46" height="46" viewBox="0 0 46 46" fill="none" xmlns="http://www.w3.org/2000/svg">
<circle cx="23" cy="23" r="23" fill="#28C76F" fill-opacity="0.12"/>
<g clip-path="url(#clip0_486_26764)">
<path d="M17.4452 21.6114H15.2223C12.5338 21.6114 11.0557 20.1333 11.0557 17.4447V15.2218C11.0557 12.5333 12.5338 11.0552 15.2223 11.0552H17.4452C20.1338 11.0552 21.6119 12.5333 21.6119 15.2218V17.4447C21.6119 20.1333 20.1338 21.6114 17.4452 21.6114ZM15.2223 12.7218C13.4671 12.7218 12.7223 13.4666 12.7223 15.2218V17.4447C12.7223 19.1999 13.4671 19.9447 15.2223 19.9447H17.4452C19.2004 19.9447 19.9452 19.1999 19.9452 17.4447V15.2218C19.9452 13.4666 19.2004 12.7218 17.4452 12.7218H15.2223Z" fill="#28C76F"/>
<path d="M30.7782 21.6114H28.5553C25.8668 21.6114 24.3887 20.1333 24.3887 17.4447V15.2218C24.3887 12.5333 25.8668 11.0552 28.5553 11.0552H30.7782C33.4668 11.0552 34.9449 12.5333 34.9449 15.2218V17.4447C34.9449 20.1333 33.4668 21.6114 30.7782 21.6114ZM28.5553 12.7218C26.8001 12.7218 26.0553 13.4666 26.0553 15.2218V17.4447C26.0553 19.1999 26.8001 19.9447 28.5553 19.9447H30.7782C32.5334 19.9447 33.2782 19.1999 33.2782 17.4447V15.2218C33.2782 13.4666 32.5334 12.7218 30.7782 12.7218H28.5553Z" fill="#28C76F"/>
<path d="M30.7782 34.9447H28.5553C25.8668 34.9447 24.3887 33.4665 24.3887 30.778V28.5551C24.3887 25.8666 25.8668 24.3884 28.5553 24.3884H30.7782C33.4668 24.3884 34.9449 25.8666 34.9449 28.5551V30.778C34.9449 33.4665 33.4668 34.9447 30.7782 34.9447ZM28.5553 26.0551C26.8001 26.0551 26.0553 26.7999 26.0553 28.5551V30.778C26.0553 32.5332 26.8001 33.278 28.5553 33.278H30.7782C32.5334 33.278 33.2782 32.5332 33.2782 30.778V28.5551C33.2782 26.7999 32.5334 26.0551 30.7782 26.0551H28.5553Z" fill="#28C76F"/>
<path d="M17.4452 34.9447H15.2223C12.5338 34.9447 11.0557 33.4665 11.0557 30.778V28.5551C11.0557 25.8666 12.5338 24.3884 15.2223 24.3884H17.4452C20.1338 24.3884 21.6119 25.8666 21.6119 28.5551V30.778C21.6119 33.4665 20.1338 34.9447 17.4452 34.9447ZM15.2223 26.0551C13.4671 26.0551 12.7223 26.7999 12.7223 28.5551V30.778C12.7223 32.5332 13.4671 33.278 15.2223 33.278H17.4452C19.2004 33.278 19.9452 32.5332 19.9452 30.778V28.5551C19.9452 26.7999 19.2004 26.0551 17.4452 26.0551H15.2223Z" fill="#28C76F"/>
</g>
<defs>
<clipPath id="clip0_486_26764">
<rect width="24" height="24" fill="white" transform="translate(11 11)"/>
</clipPath>
</defs>
</svg>
