<svg width="46" height="46" viewBox="0 0 46 46" fill="none" xmlns="http://www.w3.org/2000/svg">
<circle cx="23" cy="23" r="23" fill="#7367F0" fill-opacity="0.12"/>
<path d="M19.4892 30.3331C19.679 29.7968 20.0303 29.3325 20.4949 29.0041C20.9595 28.6757 21.5144 28.4994 22.0833 28.4994C22.6523 28.4994 23.2072 28.6757 23.6718 29.0041C24.1363 29.3325 24.4877 29.7968 24.6775 30.3331H34V32.1663H24.6775C24.4877 32.7026 24.1363 33.1669 23.6718 33.4953C23.2072 33.8237 22.6523 34 22.0833 34C21.5144 34 20.9595 33.8237 20.4949 33.4953C20.0303 33.1669 19.679 32.7026 19.4892 32.1663H12V30.3331H19.4892ZM24.9892 22.0834C25.179 21.5471 25.5303 21.0828 25.9949 20.7544C26.4595 20.426 27.0144 20.2497 27.5833 20.2497C28.1523 20.2497 28.7072 20.426 29.1718 20.7544C29.6363 21.0828 29.9877 21.5471 30.1775 22.0834H34V23.9166H30.1775C29.9877 24.4529 29.6363 24.9172 29.1718 25.2456C28.7072 25.574 28.1523 25.7503 27.5833 25.7503C27.0144 25.7503 26.4595 25.574 25.9949 25.2456C25.5303 24.9172 25.179 24.4529 24.9892 23.9166H12V22.0834H24.9892ZM15.8225 13.8337C16.0123 13.2974 16.3637 12.8331 16.8282 12.5047C17.2928 12.1763 17.8477 12 18.4167 12C18.9856 12 19.5405 12.1763 20.0051 12.5047C20.4697 12.8331 20.821 13.2974 21.0108 13.8337H34V15.6669H21.0108C20.821 16.2032 20.4697 16.6675 20.0051 16.9959C19.5405 17.3243 18.9856 17.5006 18.4167 17.5006C17.8477 17.5006 17.2928 17.3243 16.8282 16.9959C16.3637 16.6675 16.0123 16.2032 15.8225 15.6669H12V13.8337H15.8225Z" fill="#7367F0"/>
</svg>
