<svg width="46" height="46" viewBox="0 0 46 46" fill="none" xmlns="http://www.w3.org/2000/svg">
<circle cx="23" cy="23" r="23" fill="#FF9F43" fill-opacity="0.12"/>
<path d="M22.1581 12.8699C16.4761 12.8699 11.8701 17.4759 11.8701 23.1579C11.8701 28.8399 16.4761 33.4459 22.1581 33.4459C26.1962 33.4459 29.693 31.1193 31.3775 27.7296L33.0525 28.5623C31.0646 32.5628 26.9332 35.3159 22.158 35.3159C15.4428 35.3159 10 29.8729 10 23.158C10 16.443 15.443 11 22.158 11C26.9332 11 31.0646 13.752 33.0525 17.7536L31.3775 18.5863C29.6929 15.1967 26.1959 12.8699 22.1581 12.8699Z" fill="#FF9F43"/>
<path d="M23.0934 17.3634V15.6755H21.2234V17.3634C19.7841 17.7706 18.7285 19.0941 18.7285 20.6641C18.7285 22.5577 20.2642 24.0934 22.1579 24.0934C23.0195 24.0934 23.7171 24.7911 23.7171 25.6516C23.7171 26.5132 23.0195 27.2109 22.1579 27.2109C21.2973 27.2109 20.5996 26.5132 20.5996 25.6516V25.1533H18.7285V25.6516C18.7285 27.2216 19.7841 28.5452 21.2234 28.9523V30.6401H23.0934V28.9523C24.5327 28.545 25.5872 27.2215 25.5872 25.6516C25.5872 23.758 24.0525 22.2223 22.1579 22.2223C21.2973 22.2223 20.5996 21.5246 20.5996 20.6641C20.5996 19.8025 21.2973 19.1048 22.1579 19.1048C23.0195 19.1048 23.7171 19.8025 23.7171 20.6641V21.1624H25.5872V20.6641C25.5872 19.0941 24.5327 17.7705 23.0934 17.3634Z" fill="#FF9F43"/>
<path d="M33.6172 24.0934L32.059 25.6516L33.3815 26.9751L36.5364 23.819V22.4965L33.3815 19.3416L32.059 20.664L33.6172 22.2222H27.1465V24.0933L33.6172 24.0934Z" fill="#FF9F43"/>
</svg>
