<svg width="47" height="49" viewBox="0 0 47 49" fill="none" xmlns="http://www.w3.org/2000/svg">
<g opacity="0.2">
<path d="M29.5513 -6.45506C15.7407 -6.45506 4.54541 4.74026 4.54541 18.5509C4.54541 32.3615 15.7407 43.5568 29.5513 43.5568C39.3663 43.5568 47.8657 37.9018 51.96 29.6628L56.0313 31.6868C51.1994 41.4104 41.1577 48.102 29.551 48.102C13.2291 48.102 0 34.8722 0 18.551C0 2.2298 13.2298 -11 29.551 -11C41.1577 -11 51.1995 -4.31108 56.0313 5.41522L51.96 7.43917C47.8653 -0.799452 39.3657 -6.45506 29.5513 -6.45506Z" fill="#28C76F"/>
<path d="M31.8242 4.46701V0.364502H27.2788V4.46701C23.7806 5.45684 21.2148 8.67374 21.2148 12.4896C21.2148 17.0922 24.9475 20.8249 29.5502 20.8249C31.6444 20.8249 33.3401 22.5206 33.3401 24.6122C33.3401 26.7065 31.6444 28.4022 29.5502 28.4022C27.4585 28.4022 25.7628 26.7065 25.7628 24.6122V23.401H21.2148V24.6122C21.2148 28.4283 23.7806 31.6452 27.2788 32.6348V36.7373H31.8242V32.6348C35.3224 31.645 37.8855 28.4281 37.8855 24.6122C37.8855 20.0096 34.1554 16.2769 29.5502 16.2769C27.4585 16.2769 25.7628 14.5812 25.7628 12.4896C25.7628 10.3953 27.4585 8.69961 29.5502 8.69961C31.6444 8.69961 33.3401 10.3953 33.3401 12.4896V13.7008H37.8855V12.4896C37.8855 8.67354 35.3223 5.45657 31.8242 4.46701Z" fill="#28C76F"/>
<path d="M57.4035 20.8248L53.6161 24.6122L56.8304 27.8291L64.4989 20.1579V16.9436L56.8304 9.27515L53.6161 12.4894L57.4035 16.2768H41.6758V20.8247L57.4035 20.8248Z" fill="#28C76F"/>
</g>
</svg>
