<svg width="46" height="46" viewBox="0 0 46 46" fill="none" xmlns="http://www.w3.org/2000/svg">
<circle cx="23" cy="23" r="23" fill="#EA5455" fill-opacity="0.12"/>
<g clip-path="url(#clip0_486_26806)">
<path d="M30.826 11.6749H26.7929V11.5263C26.7929 11.3135 26.6159 11.1412 26.3962 11.1412H25.0608C25.0608 11.1364 25.062 11.1316 25.062 11.1269C25.062 10.0201 24.1367 9.1189 23.0002 9.1189C21.8637 9.1189 20.9384 10.02 20.9384 11.1269C20.9384 11.1316 20.9396 11.1364 20.9396 11.1412H19.6042C19.3857 11.1412 19.2087 11.3135 19.2087 11.5263V11.6749H15.1743C14.0476 11.6749 13.1309 12.5678 13.1309 13.6651V34.8897C13.1309 35.987 14.0476 36.8799 15.1743 36.8799H30.8262C31.9529 36.8799 32.8697 35.987 32.8697 34.8897L32.8709 13.6651C32.8709 12.5678 31.9528 11.6749 30.826 11.6749ZM23.0001 9.89047C23.7008 9.89047 24.2709 10.4445 24.2709 11.1269C24.2709 11.1316 24.2696 11.1364 24.2696 11.1411H21.7318C21.7318 11.1364 21.7306 11.1316 21.7306 11.1269C21.7306 10.4445 22.2994 9.89047 23.0001 9.89047ZM19.9996 11.9115H26.0005V13.4428C26.0005 13.9932 25.5415 14.4402 24.9764 14.4402L21.0239 14.439C20.4587 14.439 19.9997 13.992 19.9997 13.4416L19.9996 11.9115ZM19.283 13.9421C19.5052 14.6744 20.201 15.2118 21.0238 15.2118H24.9775C25.8015 15.2118 26.4973 14.6744 26.7182 13.9421H30.5426V34.614H15.4573V13.9421H19.283ZM32.0784 34.8898C32.0784 35.5626 31.5168 36.1095 30.8259 36.1095H15.174C14.4831 36.1095 13.9216 35.5626 13.9216 34.8898V13.6651C13.9216 12.9923 14.4831 12.4454 15.174 12.4454H19.2072V13.1706H15.174C14.8945 13.1706 14.6662 13.3929 14.6662 13.6651V34.8898C14.6662 35.162 14.8945 35.3843 15.174 35.3843H30.8259C31.1055 35.3843 31.3337 35.162 31.3337 34.8898V13.6651C31.3337 13.3929 31.1055 13.1706 30.8259 13.1706H26.7928V12.4454H30.8259C31.5168 12.4454 32.0784 12.9923 32.0784 13.6651V34.8898Z" fill="#EA5455"/>
<path d="M17.9389 19.9255C18.0158 20.0004 18.1171 20.0385 18.2184 20.0385C18.3197 20.0385 18.421 20.0004 18.498 19.9255L20.6708 17.8094C20.8258 17.6596 20.8258 17.4146 20.6708 17.2648C20.517 17.1139 20.2655 17.1139 20.1117 17.2648L18.2184 19.1088L17.1588 18.0768C17.005 17.9259 16.7535 17.9259 16.5997 18.0768C16.4459 18.2266 16.4459 18.4716 16.5997 18.6214L17.9389 19.9255Z" fill="#EA5455"/>
<path d="M22.7519 18.1175H29.1216C29.3401 18.1175 29.5171 17.9451 29.5171 17.7324C29.5171 17.5195 29.3401 17.3472 29.1216 17.3472H22.7519C22.5334 17.3472 22.3564 17.5196 22.3564 17.7324C22.3564 17.9452 22.5334 18.1175 22.7519 18.1175Z" fill="#EA5455"/>
<path d="M22.7519 19.8448H25.9357C26.1542 19.8448 26.3312 19.6724 26.3312 19.4596C26.3312 19.2468 26.1542 19.0744 25.9357 19.0744L22.7519 19.0732C22.5334 19.0732 22.3564 19.2456 22.3564 19.4584C22.3564 19.6712 22.5334 19.8448 22.7519 19.8448Z" fill="#EA5455"/>
<path d="M17.9389 32.5596C18.0158 32.6344 18.1171 32.6725 18.2184 32.6725C18.3197 32.6725 18.421 32.6356 18.498 32.5596L20.6708 30.4434C20.8258 30.2936 20.8258 30.0487 20.6708 29.8989C20.517 29.7479 20.2655 29.7479 20.1117 29.8989L18.2184 31.7428L17.1588 30.7109C17.005 30.5599 16.7535 30.5599 16.5997 30.7109C16.4459 30.8607 16.4459 31.1056 16.5997 31.2554L17.9389 32.5596Z" fill="#EA5455"/>
<path d="M22.7519 30.7525H29.1216C29.3401 30.7525 29.5171 30.5801 29.5171 30.3673C29.5171 30.1545 29.3401 29.9821 29.1216 29.9821L22.7519 29.981C22.5334 29.981 22.3564 30.1533 22.3564 30.3661C22.3564 30.5789 22.5334 30.7525 22.7519 30.7525Z" fill="#EA5455"/>
<path d="M22.7519 32.4791H25.9357C26.1542 32.4791 26.3312 32.3067 26.3312 32.0939C26.3312 31.8811 26.1542 31.7087 25.9357 31.7087L22.7519 31.7075C22.5334 31.7075 22.3564 31.8799 22.3564 32.0927C22.3564 32.3055 22.5334 32.4791 22.7519 32.4791Z" fill="#EA5455"/>
<path d="M17.9389 26.2432C18.0158 26.3181 18.1171 26.3562 18.2184 26.3562C18.3197 26.3562 18.421 26.3181 18.498 26.2432L20.6708 24.1271C20.8258 23.9773 20.8258 23.7324 20.6708 23.5826C20.517 23.4328 20.2655 23.4328 20.1117 23.5826L18.2184 25.4265L17.1588 24.3946C17.005 24.2436 16.7535 24.2436 16.5997 24.3946C16.4459 24.5444 16.4459 24.7893 16.5997 24.9391L17.9389 26.2432Z" fill="#EA5455"/>
<path d="M22.7519 24.4351H29.1216C29.3401 24.4351 29.5171 24.2627 29.5171 24.0488C29.5171 23.836 29.3401 23.6636 29.1216 23.6636H22.7519C22.5334 23.6636 22.3564 23.836 22.3564 24.0488C22.3564 24.2628 22.5334 24.4351 22.7519 24.4351Z" fill="#EA5455"/>
<path d="M22.7519 26.1612H25.9357C26.1542 26.1612 26.3312 25.9888 26.3312 25.776C26.3312 25.5632 26.1542 25.3896 25.9357 25.3896H22.7519C22.5334 25.3896 22.3564 25.562 22.3564 25.776C22.3564 25.9888 22.5334 26.1612 22.7519 26.1612Z" fill="#EA5455"/>
</g>
<defs>
<clipPath id="clip0_486_26806">
<rect width="20" height="28" fill="white" transform="translate(13 9)"/>
</clipPath>
</defs>
</svg>
