<svg width="47" height="48" viewBox="0 0 47 48" fill="none" xmlns="http://www.w3.org/2000/svg">
<g opacity="0.2">
<path d="M29.5513 -7.45506C15.7407 -7.45506 4.54541 3.74026 4.54541 17.5509C4.54541 31.3615 15.7407 42.5568 29.5513 42.5568C39.3663 42.5568 47.8657 36.9018 51.96 28.6628L56.0313 30.6868C51.1994 40.4104 41.1577 47.102 29.551 47.102C13.2291 47.102 0 33.8722 0 17.551C0 1.2298 13.2298 -12 29.551 -12C41.1577 -12 51.1995 -5.31108 56.0313 4.41522L51.96 6.43917C47.8653 -1.79945 39.3657 -7.45506 29.5513 -7.45506Z" fill="#FF9F43"/>
<path d="M31.8242 3.46725V-0.635254H27.2788V3.46725C23.7806 4.45709 21.2148 7.67398 21.2148 11.4898C21.2148 16.0924 24.9475 19.8251 29.5502 19.8251C31.6444 19.8251 33.3401 21.5209 33.3401 23.6125C33.3401 25.7067 31.6444 27.4025 29.5502 27.4025C27.4585 27.4025 25.7628 25.7067 25.7628 23.6125V22.4013H21.2148V23.6125C21.2148 27.4285 23.7806 30.6455 27.2788 31.6351V35.7376H31.8242V31.6351C35.3224 30.6452 37.8855 27.4283 37.8855 23.6125C37.8855 19.0099 34.1554 15.2772 29.5502 15.2772C27.4585 15.2772 25.7628 13.5814 25.7628 11.4898C25.7628 9.39559 27.4585 7.69985 29.5502 7.69985C31.6444 7.69985 33.3401 9.39559 33.3401 11.4898V12.701H37.8855V11.4898C37.8855 7.67378 35.3223 4.45682 31.8242 3.46725Z" fill="#FF9F43"/>
<path d="M57.4035 19.8248L53.6161 23.6122L56.8304 26.8291L64.4989 19.1579V15.9436L56.8304 8.27515L53.6161 11.4894L57.4035 15.2768H41.6758V19.8247L57.4035 19.8248Z" fill="#FF9F43"/>
</g>
</svg>
