<svg width="46" height="46" viewBox="0 0 46 46" fill="none" xmlns="http://www.w3.org/2000/svg">
<circle cx="23" cy="23" r="23" fill="#28C76F" fill-opacity="0.12"/>
<path d="M13.4 16.2914C13.568 16.2205 13.7692 16.1451 14.0036 16.0651C15.167 15.6837 16.3803 15.493 17.6 15.5001C18.8197 15.493 20.033 15.6837 21.1964 16.0651C21.4308 16.1451 21.632 16.2205 21.8 16.2914V29.891C20.4389 29.4587 19.023 29.2425 17.6 29.2498C15.848 29.2498 14.4212 29.5598 13.4 29.891V16.2914ZM23 14.1064C22.6522 13.9466 22.2965 13.8059 21.9344 13.6852C20.5325 13.2238 19.0702 12.9927 17.6 13.0002C15.7688 13.0002 14.294 13.3389 13.2656 13.6852C12.8563 13.8222 12.4552 13.9846 12.0644 14.1714C11.9192 14.2414 11.7764 14.3165 11.636 14.3964L11.606 14.4139L11.5952 14.4201L11.5916 14.4226C11.5892 14.4251 11.294 14.6064 11.588 14.4251C11.4089 14.5358 11.2605 14.6931 11.1574 14.8815C11.0543 15.07 11 15.2832 11 15.5001V31.7497C11 31.9704 11.0561 32.187 11.1626 32.3778C11.269 32.5685 11.4221 32.7265 11.6061 32.8357C11.7902 32.9449 11.9987 33.0014 12.2105 32.9994C12.4223 32.9975 12.6298 32.9372 12.812 32.8247L12.806 32.8285L12.8096 32.8272L12.8108 32.826L12.8552 32.801C12.9 32.776 12.9728 32.7385 13.0736 32.6885C13.2776 32.591 13.5896 32.4535 14.0036 32.3135C15.1671 31.9324 16.3804 31.7423 17.6 31.7497C18.8196 31.7423 20.0329 31.9324 21.1964 32.3135C21.5133 32.4192 21.8238 32.5444 22.1264 32.6885C22.217 32.7322 22.3062 32.7789 22.394 32.8285M22.394 32.8285L22.3916 32.8272L22.3904 32.826C22.7672 33.0572 23.2352 33.0572 23.612 32.826L23.6564 32.801C23.7012 32.776 23.774 32.7385 23.8748 32.6885C24.1774 32.5444 24.4879 32.4192 24.8048 32.3135C25.9679 31.9326 27.1808 31.7424 28.4 31.7497C29.6196 31.7423 30.8329 31.9324 31.9964 32.3135C32.3133 32.4192 32.6238 32.5444 32.9264 32.6885C33.0153 32.7315 33.103 32.7773 33.1892 32.826C33.3714 32.9382 33.579 32.9983 33.7907 33C34.0024 33.0017 34.2108 32.945 34.3947 32.8357C34.5786 32.7264 34.7315 32.5684 34.8378 32.3776C34.9441 32.1869 35 31.9703 35 31.7497V15.5001C35 15.2832 34.9457 15.07 34.8426 14.8815C34.7395 14.6931 34.5911 14.5358 34.412 14.4251L34.4096 14.4239L34.4048 14.4201L34.3928 14.4139L34.364 14.3964C34.2236 14.3165 34.0808 14.2414 33.9356 14.1714C33.5452 13.9846 33.1445 13.8222 32.7356 13.6852C31.3333 13.2237 29.8706 12.9926 28.4 13.0002C26.57 13.0002 25.094 13.3389 24.0656 13.6852C23.7035 13.8059 23.3478 13.9466 23 14.1064M32.6 16.2914V29.891C31.2389 29.4587 29.823 29.2425 28.4 29.2498C26.648 29.2498 25.2212 29.5598 24.2 29.891V16.2914C24.368 16.2205 24.5692 16.1451 24.8036 16.0651C25.967 15.6837 27.1803 15.493 28.4 15.5001C29.6197 15.493 30.833 15.6837 31.9964 16.0651C32.2308 16.1451 32.432 16.2205 32.6 16.2914ZM33.188 16.5763L33.194 16.5788H33.1928L33.188 16.5763ZM33.1892 32.826L33.1928 32.8285L33.1904 32.826" fill="#28C76F"/>
</svg>
