<svg width="46" height="46" viewBox="0 0 46 46" fill="none" xmlns="http://www.w3.org/2000/svg">
<circle cx="23" cy="23" r="23" fill="#7367F0" fill-opacity="0.12"/>
<path d="M23.5343 25.5601C23.5343 25.134 23.189 24.79 22.7642 24.79C22.3394 24.79 21.9941 25.134 21.9941 25.5601C21.9941 25.9849 22.3394 26.3302 22.7642 26.3302C23.189 26.3302 23.5343 25.9849 23.5343 25.5601Z" fill="#7367F0"/>
<path d="M22.5078 33.8023C22.5078 34.2271 22.8531 34.5724 23.2779 34.5724C23.7027 34.5724 24.048 34.2271 24.048 33.8023C24.048 33.3762 23.7027 33.0322 23.2779 33.0322C22.8531 33.0322 22.5078 33.3762 22.5078 33.8023Z" fill="#7367F0"/>
<path d="M22.5078 31.0491C22.5078 31.4739 22.8531 31.8192 23.2779 31.8192C23.7027 31.8192 24.048 31.4739 24.048 31.0491C24.048 30.623 23.7027 30.2791 23.2779 30.2791C22.8531 30.2791 22.5078 30.623 22.5078 31.0491Z" fill="#7367F0"/>
<path d="M18.0059 33.2618C18.0059 33.6879 18.3511 34.0318 18.7759 34.0318C19.2008 34.0318 19.546 33.6879 19.546 33.2618C19.546 32.8369 19.2008 32.4917 18.7759 32.4917C18.3511 32.4917 18.0059 32.8369 18.0059 33.2618Z" fill="#7367F0"/>
<path d="M25.0748 24.2764C24.6499 24.2764 24.3047 24.6203 24.3047 25.0464C24.3047 25.4713 24.6499 25.8165 25.0748 25.8165C25.5009 25.8165 25.8448 25.4713 25.8448 25.0464C25.8448 24.6203 25.5009 24.2764 25.0748 24.2764Z" fill="#7367F0"/>
<path d="M19.941 25.9602C19.5149 25.9602 19.1709 26.3042 19.1709 26.7303C19.1709 27.1551 19.5149 27.5003 19.941 27.5003C20.3658 27.5003 20.711 27.1551 20.711 26.7303C20.711 26.3042 20.3658 25.9602 19.941 25.9602Z" fill="#7367F0"/>
<path d="M23.3956 28.6661C23.3956 28.2412 23.0504 27.896 22.6255 27.896C22.2007 27.896 21.8555 28.2412 21.8555 28.6661C21.8555 29.0922 22.2007 29.4361 22.6255 29.4361C23.0504 29.4361 23.3956 29.0922 23.3956 28.6661Z" fill="#7367F0"/>
<path d="M20.4546 23.1357C20.0285 23.1357 19.6846 23.481 19.6846 23.9058C19.6846 24.3319 20.0285 24.6759 20.4546 24.6759C20.8795 24.6759 21.2247 24.3319 21.2247 23.9058C21.2247 23.481 20.8795 23.1357 20.4546 23.1357Z" fill="#7367F0"/>
<path d="M19.9404 30.5357C19.9404 30.9605 20.2844 31.3058 20.7105 31.3058C21.1353 31.3058 21.4806 30.9605 21.4806 30.5357C21.4806 30.1096 21.1353 29.7656 20.7105 29.7656C20.2844 29.7656 19.9404 30.1096 19.9404 30.5357Z" fill="#7367F0"/>
<path d="M19.0323 28.6661C19.0323 28.2412 18.6871 27.896 18.2623 27.896C17.8374 27.896 17.4922 28.2412 17.4922 28.6661C17.4922 29.0922 17.8374 29.4361 18.2623 29.4361C18.6871 29.4361 19.0323 29.0922 19.0323 28.6661Z" fill="#7367F0"/>
<path d="M26.1026 29.8106C26.1026 29.3858 25.7574 29.0405 25.3326 29.0405C24.9065 29.0405 24.5625 29.3858 24.5625 29.8106C24.5625 30.2367 24.9065 30.5807 25.3326 30.5807C25.7574 30.5807 26.1026 30.2367 26.1026 29.8106Z" fill="#7367F0"/>
<path d="M25.5889 32.2605C25.5889 32.6867 25.9328 33.0306 26.3589 33.0306C26.7838 33.0306 27.129 32.6867 27.129 32.2605C27.129 31.8357 26.7838 31.4905 26.3589 31.4905C25.9328 31.4905 25.5889 31.8357 25.5889 32.2605Z" fill="#7367F0"/>
<path d="M35.4946 12.224C34.5282 11.2589 33.2191 10.7173 31.8535 10.7173C30.488 10.7173 29.1789 11.2589 28.2125 12.224L22.6257 17.8134L17.0389 12.224C15.7375 10.9226 13.8406 10.4157 12.0629 10.8918C10.2854 11.3692 8.89802 12.7579 8.42187 14.5355C7.94701 16.313 8.45524 18.2101 9.75663 19.5102L15.6565 25.4114C15.8606 25.609 16.184 25.609 16.3868 25.4114L22.6254 19.1714L28.864 25.4114C29.0668 25.609 29.3903 25.609 29.5943 25.4114L35.4942 19.5102C36.4581 18.5437 36.9997 17.2334 36.9997 15.8678C36.9997 14.5009 36.4581 13.1906 35.4942 12.2241L35.4946 12.224ZM15.5847 14.4058C15.3845 14.6047 15.0611 14.6047 14.8609 14.4058C14.0536 13.5998 12.7458 13.5973 11.9347 14.4007C11.8397 14.4969 11.7088 14.5521 11.5728 14.5521C11.438 14.5521 11.3071 14.4969 11.2108 14.4007C10.4985 13.4907 12.7124 12.695 13.3978 12.7681C14.087 12.6937 16.3073 13.4958 15.5847 14.4058ZM34.0404 18.057C33.8402 18.2573 33.5142 18.256 33.314 18.0545C33.115 17.853 33.1163 17.5283 33.3165 17.3281C34.1225 16.5208 34.1225 15.213 33.3165 14.4057C33.1163 14.2042 33.1163 13.8782 33.3165 13.6767C33.5168 13.4778 33.8402 13.4778 34.0404 13.6767C35.2481 14.887 35.2481 16.8468 34.0404 18.057Z" fill="#7367F0"/>
<path d="M25.8462 28.0138C26.2711 28.0138 26.6163 27.6698 26.6163 27.2437C26.6163 26.8189 26.2711 26.4736 25.8462 26.4736C25.4201 26.4736 25.0762 26.8189 25.0762 27.2437C25.0762 27.6698 25.4201 28.0138 25.8462 28.0138Z" fill="#7367F0"/>
</svg>
